<svg width="378" height="201" viewBox="0 0 378 201" fill="none" xmlns="http://www.w3.org/2000/svg">
<path d="M185.752 16.6051C182.05 17.0895 178.254 16.6236 174.53 16.7861C166.648 17.13 158.762 17.8065 150.905 18.59C137.401 19.9365 123.861 22.4941 110.742 25.9315C93.245 30.5161 75.8213 36.5952 60.2438 45.9092C44.0253 55.6067 27.2249 69.1849 22.2898 88.287C21.3588 91.8905 20.9673 95.4664 20.9673 99.1757C20.9673 124.48 41.8875 142.551 62.311 154.164C79.2679 163.805 98.0155 170.009 116.944 174.48C140.093 179.947 163.795 182.165 187.524 182.165C201.664 182.165 215.724 181.567 229.753 179.728C264.01 175.239 300.114 165.828 328.092 144.752C343.573 133.091 356.327 116.132 354.939 95.9385C353.516 75.2317 336.494 58.7809 319.824 48.433C290.137 30.0058 255.078 21.6319 220.599 18.1962C211.957 17.3351 203.303 16.7745 194.611 16.7745C191.668 16.7745 188.678 16.2222 185.752 16.6051Z" fill="white"/>
<path d="M228.277 78.2811L227.391 82.6954H238.612C238.115 86.3747 236.821 89.9882 235.917 93.5842C233.845 101.836 231.638 110.053 229.568 118.305C228.013 124.503 226.329 130.666 224.699 136.845C223.184 142.584 221.711 148.418 218.742 153.619C216.611 157.352 213.263 160.576 209.081 161.848C207.857 162.22 205.433 162.945 204.602 161.483C204.059 160.527 205.224 159.614 205.709 158.917C206.649 157.566 206.656 155.782 205.47 154.565C202.489 151.506 196.473 154.173 196.437 158.328C196.396 162.992 201.853 165.211 205.833 165.084C213.735 164.832 220.6 159.105 225.025 153.031C235.075 139.235 239.218 121.923 243.3 105.65L246.991 90.9356C247.672 88.2213 248.574 85.4688 248.948 82.6954H258.694C258.981 81.3138 259.457 79.9842 259.58 78.5754H250.13C252.847 70.1084 254.864 60.9807 259.977 53.5608C262.365 50.0964 265.784 46.4984 270.211 45.9634C271.588 45.7971 273.88 45.6399 274.62 47.1184C275.418 48.7153 273.292 50.7223 273.25 52.3836C273.14 56.7067 279.143 57.473 281.665 54.9692C286.341 50.3277 280.314 44.2656 275.527 43.3521C268.41 41.994 261.11 45.5016 256.036 50.335C251.229 54.9133 248.04 60.1446 244.905 65.9209C242.802 69.7955 241.118 74.5692 237.136 76.963C234.465 78.5683 231.265 78.2811 228.277 78.2811ZM99.8156 76.9344C96.6457 77.3494 93.6967 77.7761 90.6609 78.8853C77.3465 83.7502 66.6142 95.7928 63.1659 109.476C61.6358 115.547 61.2694 122.569 64.1929 128.31C69.5024 138.736 83.3209 139.372 93.0234 135.535C98.306 133.446 102.631 129.92 106.608 125.956C107.508 125.059 110.532 122.806 109.635 121.292C108.899 120.049 107.665 120.871 106.903 121.559C104.667 123.578 102.604 125.687 100.111 127.416C92.7048 132.553 81.0072 134.309 75.3345 125.662C72.5411 121.404 72.9312 115.749 73.707 110.947C75.3558 100.743 81.2091 90.0606 89.775 84.0848C93.3852 81.5663 98.5402 79.2523 103.064 79.8376C103.856 79.9403 104.667 80.1072 105.427 80.357C105.939 80.5256 106.438 80.7346 106.89 81.0298C111.134 83.7967 105.301 86.9871 104.244 89.7584C102.926 93.2116 105.388 96.3511 108.97 96.2198C115.039 95.9973 116.885 87.4691 114.637 82.9897C112.038 77.8097 105.197 76.2305 99.8156 76.9344ZM166.556 120.365C159.602 124.68 152.771 131.665 143.817 130.908C136.561 130.294 130.565 124.468 130.244 117.127C130.185 115.757 130.041 113.1 130.832 111.924C131.464 110.983 133.357 111.126 134.367 110.986C137.429 110.562 140.505 110.122 143.522 109.441C152.915 107.318 163.538 103.461 169.383 95.3499C172.751 90.6769 174.357 83.3249 168.918 79.3962C167.767 78.5648 166.434 78.0154 165.08 77.6104C161.019 76.3965 156.484 76.6984 152.381 77.5159C137.617 80.458 126.623 92.422 121.256 105.944C117.564 115.245 117.671 128.127 126.689 134.478C136.438 141.343 149.5 136.398 158.287 130.467C160.674 128.856 162.971 127.005 165.08 125.047C165.825 124.355 167.056 123.444 167.345 122.425C167.567 121.643 166.961 120.962 166.556 120.365ZM191.953 107.71C191.706 104.93 193.408 101.547 194.19 98.8814C195.573 94.1704 196.952 89.4568 198.367 84.7555C199.119 82.2584 200.135 79.6828 200.517 77.1039C192.973 77.259 185.608 80.0186 178.073 80.3411L178.369 82.9897C181.197 82.4662 186.672 81.2661 187.868 85.0501C188.298 86.407 187.636 88.4144 187.331 89.7584C186.521 93.3352 185.472 96.8531 184.376 100.353C181.93 108.163 179.662 116.043 177.358 123.896C176.202 127.832 174.489 131.894 173.939 135.962H183.98C184.56 131.671 186.021 127.358 187.508 123.307C188.705 120.045 189.791 116.709 191.353 113.596C193.785 108.75 196.942 104.165 200.098 99.7643C202.962 95.7696 206.174 90.7331 210.262 87.8894C210.622 87.6395 211.026 87.3967 211.444 87.2564C214.574 86.2057 214.348 89.7443 215.577 91.4697C216.75 93.1186 219.155 93.3861 220.889 92.4988C221.506 92.1834 222.006 91.7357 222.441 91.2022C223.012 90.5009 223.467 89.6981 223.835 88.8755C225.517 85.1189 227.129 76.1234 220.303 76.865C219.49 76.9533 218.695 77.2278 217.941 77.5315C216.463 78.1263 215.098 78.9547 213.806 79.8785C207.061 84.7034 202.022 91.7764 197.466 98.5871C195.552 101.448 193.144 104.468 191.953 107.71ZM294.722 119.187C293.972 121.821 293.118 124.442 292.597 127.133C292.259 128.877 292.022 130.652 292.068 132.43C292.171 136.408 295.416 138.261 299.152 137.591C304.287 136.67 308.448 132.948 311.8 129.193C312.866 128 313.929 126.718 314.788 125.367C315.107 124.867 315.512 124.274 315.302 123.653C315.028 122.827 314.05 122.436 313.327 122.13C311.761 124.867 309.399 127.945 306.83 129.803C305.409 130.829 303.431 131.405 302.822 129.192C302.409 127.684 303.106 125.938 303.472 124.485C304.314 121.128 305.25 117.807 306.198 114.479C308.542 106.231 310.943 97.9968 313.327 89.7584C314.526 85.6124 316.495 81.1098 316.87 76.8097C314.561 77.3767 312.139 77.6643 309.783 77.9868C308.864 78.1128 307.453 78.0766 306.741 78.7528C305.182 80.2372 305.034 83.7002 304.172 85.6383C303.519 83.6448 302.76 81.676 301.375 80.0586C295.658 73.3788 285.044 78.1884 279.366 82.2325C271.149 88.0845 264.955 96.4479 260.973 105.65C259.145 109.876 257.562 114.564 257.243 119.187C257.018 122.462 256.995 126.051 258.029 129.193C258.507 130.645 259.247 132.099 260.183 133.309C266.131 140.995 276.379 137.022 282.614 132C287.273 128.248 290.819 123.654 294.722 119.187Z" fill="#0A7AFF"/>
<path d="M131.414 108.004C141.471 107.977 153.282 103.311 159.566 95.3499C162.16 92.0648 165.12 85.5098 161.473 81.8756C157.957 78.3718 151.53 80.5951 147.952 82.7555C141.215 86.8232 136.581 93.1657 133.66 100.353C132.687 102.746 131.64 105.419 131.414 108.004ZM291.473 80.4936C287.219 81.3982 283.47 84.7761 280.77 87.9927C274.657 95.274 269.826 104.778 268.169 114.184C267.23 119.512 266.586 128.565 273.755 129.938C274.721 130.124 275.741 130.113 276.708 129.939C281.651 129.053 285.806 125.238 288.937 121.542C294.854 114.556 299.854 106.312 301.18 97.1157C302.01 91.3664 302.999 80.9756 294.722 80.3676C293.664 80.2899 292.514 80.2723 291.473 80.4936ZM191.461 107.906C191.445 107.923 191.428 108.233 191.559 108.102C191.576 108.086 191.592 107.775 191.461 107.906Z" fill="white"/>
</svg>
