<svg width="103" height="56" viewBox="0 0 103 56" fill="none" xmlns="http://www.w3.org/2000/svg">
<path d="M50.9125 5.28063C49.913 5.41142 48.888 5.28562 47.8824 5.3295C45.7542 5.42237 43.6249 5.60503 41.5032 5.81659C37.8569 6.18016 34.2009 6.87077 30.6585 7.79896C25.9339 9.03687 21.2292 10.6784 17.0229 13.1933C12.6436 15.8118 8.10717 19.4782 6.77459 24.6362C6.5232 25.6092 6.41748 26.5748 6.41748 27.5763C6.41748 34.4091 12.0664 39.2886 17.5811 42.4242C22.1598 45.0275 27.222 46.7028 32.3331 47.9099C38.5837 49.3863 44.9839 49.9852 51.391 49.9852C55.2092 49.9852 59.0056 49.8235 62.7938 49.3271C72.0439 48.115 81.7928 45.5738 89.3474 39.8829C93.5273 36.7341 96.9713 32.1549 96.5965 26.7022C96.2122 21.111 91.616 16.6689 87.1146 13.8748C79.0986 8.89908 69.632 6.63797 60.3219 5.71026C57.9884 5.47774 55.6518 5.32637 53.3048 5.32637C52.5101 5.32637 51.7026 5.17725 50.9125 5.28063Z" fill="white"/>
<path d="M62.3951 21.9344L62.1558 23.1264H65.186C65.0518 24.1199 64.7021 25.0956 64.4582 26.0666C63.8986 28.2948 63.3027 30.5134 62.7438 32.7416C62.3239 34.4154 61.8692 36.0795 61.4289 37.7478C61.0201 39.2975 60.6221 40.8729 59.8205 42.2773C59.2452 43.2851 58.341 44.1557 57.2119 44.4992C56.8814 44.5997 56.2269 44.7955 56.0024 44.4006C55.8557 44.1426 56.1705 43.8959 56.3015 43.7076C56.5551 43.3429 56.557 42.8613 56.2369 42.5327C55.432 41.7066 53.8076 42.4269 53.7978 43.5487C53.7867 44.8082 55.2601 45.4072 56.3348 45.373C58.4686 45.305 60.3222 43.7585 61.517 42.1183C64.2308 38.3932 65.3494 33.7187 66.4517 29.3246L67.4484 25.3514C67.6323 24.6185 67.8757 23.8753 67.9769 23.1264H70.6083C70.6858 22.7533 70.8143 22.3943 70.8475 22.0139H68.2958C69.0294 19.7277 69.5743 17.263 70.9549 15.2595C71.5996 14.324 72.5229 13.3525 73.7182 13.208C74.09 13.1631 74.709 13.1207 74.9086 13.5199C75.1242 13.9511 74.5501 14.493 74.5387 14.9416C74.509 16.1089 76.1301 16.3159 76.8111 15.6398C78.0736 14.3865 76.4462 12.7496 75.1535 12.5029C73.2318 12.1362 71.2608 13.0833 69.8906 14.3885C68.5928 15.6247 67.7316 17.0372 66.8852 18.597C66.3173 19.6432 65.8625 20.9322 64.7873 21.5785C64.0661 22.012 63.2019 21.9344 62.3951 21.9344ZM27.708 21.5708C26.8521 21.6829 26.0558 21.7981 25.2361 22.0976C21.6409 23.4112 18.743 26.663 17.8119 30.3576C17.3987 31.9969 17.2998 33.893 18.0892 35.4434C19.5229 38.2586 23.2541 38.4302 25.874 37.3942C27.3004 36.8302 28.4684 35.878 29.5421 34.8076C29.785 34.5654 30.6017 33.957 30.3596 33.5484C30.1607 33.2127 29.8275 33.4346 29.6218 33.6204C29.0181 34.1656 28.4609 34.735 27.7878 35.2019C25.788 36.589 22.6294 37.0632 21.0977 34.7282C20.3434 33.5784 20.4487 32.0514 20.6582 30.755C21.1034 27.9996 22.6839 25.1152 24.9969 23.5016C25.9717 22.8215 27.3636 22.1967 28.5852 22.3547C28.7991 22.3825 29.0181 22.4275 29.2231 22.495C29.3614 22.5405 29.4961 22.5969 29.6184 22.6766C30.7642 23.4238 29.1893 24.2852 28.9037 25.0336C28.5479 25.966 29.2128 26.8137 30.18 26.7783C31.8187 26.7182 32.3171 24.4154 31.7102 23.2059C31.0083 21.8071 29.1611 21.3807 27.708 21.5708ZM45.7293 33.2978C43.8516 34.4631 42.0071 36.3492 39.5893 36.1447C37.6301 35.979 36.0109 34.4059 35.9244 32.4237C35.9083 32.0537 35.8695 31.3363 36.083 31.0186C36.2536 30.7645 36.7649 30.8031 37.0377 30.7653C37.8644 30.6509 38.6951 30.5322 39.5096 30.3481C42.0458 29.7751 44.9142 28.7335 46.4926 26.5434C47.402 25.2816 47.8358 23.2964 46.3669 22.2355C46.0562 22.0111 45.6962 21.8627 45.3306 21.7534C44.2341 21.4256 43.0096 21.5071 41.9018 21.7278C37.9153 22.5222 34.9465 25.7528 33.4973 29.4041C32.5005 31.9155 32.5293 35.3938 34.9644 37.1087C37.5967 38.9623 41.1238 37.6273 43.4966 36.0257C44.1412 35.5908 44.7612 35.0909 45.3306 34.5621C45.5319 34.3753 45.8643 34.1293 45.9423 33.8542C46.0021 33.6431 45.8386 33.4592 45.7293 33.2978ZM52.587 29.8809C52.5203 29.1302 52.9798 28.2168 53.1911 27.4969C53.5645 26.2249 53.9368 24.9521 54.319 23.6827C54.522 23.0084 54.7963 22.3129 54.8995 21.6166C52.8624 21.6585 50.8736 22.4036 48.8392 22.4907L48.919 23.2059C49.6825 23.0645 51.1609 22.7405 51.484 23.7622C51.6 24.1286 51.4213 24.6706 51.339 25.0336C51.1201 25.9994 50.8369 26.9493 50.5409 27.8943C49.8805 30.0032 49.2683 32.131 48.6459 34.2514C48.334 35.3141 47.8714 36.4109 47.7228 37.5094H50.434C50.5906 36.3507 50.9852 35.1863 51.3867 34.0925C51.7099 33.2116 52.0032 32.3109 52.4251 31.4701C53.0816 30.1615 53.934 28.9236 54.7862 27.7353C55.5596 26.6567 56.427 25.2967 57.5309 24.5289C57.6279 24.4614 57.7371 24.3959 57.8499 24.3579C58.695 24.0743 58.6341 25.0297 58.9658 25.4956C59.2828 25.9409 59.932 26.0131 60.4004 25.7735C60.5669 25.6883 60.7019 25.5675 60.8193 25.4234C60.9736 25.234 61.0963 25.0173 61.1958 24.7952C61.6499 23.7808 62.0852 21.3518 60.2421 21.5521C60.0225 21.5759 59.8079 21.65 59.6041 21.7321C59.205 21.8927 58.8366 22.1163 58.4878 22.3658C56.6664 23.6686 55.3057 25.5784 54.0755 27.4175C53.5587 28.1899 52.9087 29.0054 52.587 29.8809ZM80.3366 32.98C80.1342 33.691 79.9035 34.3989 79.7629 35.1255C79.6717 35.5965 79.6077 36.0757 79.6202 36.5559C79.6479 37.6298 80.524 38.1301 81.5327 37.9493C82.9194 37.7007 84.0429 36.6956 84.948 35.6817C85.2359 35.3594 85.5229 35.0135 85.755 34.6487C85.8411 34.5137 85.9503 34.3533 85.8937 34.1858C85.8196 33.9628 85.5556 33.8572 85.3603 33.7746C84.9376 34.5136 84.2997 35.3447 83.606 35.8464C83.2224 36.1235 82.6882 36.2789 82.5239 35.6813C82.4123 35.2743 82.6004 34.8028 82.6993 34.4103C82.9266 33.504 83.1794 32.6073 83.4353 31.7085C84.0685 29.4814 84.7168 27.2581 85.3603 25.0336C85.684 23.9141 86.2159 22.6983 86.3171 21.5371C85.6936 21.6903 85.0397 21.7679 84.4034 21.855C84.1554 21.889 83.7742 21.8792 83.582 22.0618C83.161 22.4626 83.1211 23.3977 82.8883 23.9211C82.7121 23.3828 82.5072 22.8511 82.1332 22.4144C80.5894 20.6107 77.7235 21.9094 76.1901 23.0014C73.9714 24.5816 72.299 26.8399 71.2238 29.3246C70.7301 30.4658 70.3027 31.7314 70.2167 32.98C70.1559 33.8641 70.1496 34.8331 70.4288 35.6817C70.5578 36.0737 70.7576 36.4664 71.0104 36.7931C72.6166 38.8683 75.3836 37.7957 77.0673 36.4398C78.3253 35.4266 79.2827 34.186 80.3366 32.98Z" fill="#0A7AFF"/>
<path d="M36.2402 29.9606C38.9557 29.9532 42.145 28.6934 43.842 26.5437C44.5422 25.6566 45.3414 23.8866 44.3567 22.9053C43.4074 21.9592 41.672 22.5596 40.7057 23.1429C38.8866 24.2413 37.6354 25.9539 36.8466 27.8946C36.5839 28.5408 36.3013 29.2626 36.2402 29.9606ZM79.4595 22.5322C78.3106 22.7764 77.2983 23.6885 76.5692 24.5571C74.9186 26.5232 73.6143 29.0893 73.1667 31.6294C72.9132 33.068 72.7394 35.5125 74.675 35.8832C74.936 35.9332 75.2113 35.9304 75.4724 35.8835C76.8073 35.6442 77.9292 34.614 78.7745 33.616C80.3722 31.7298 81.7225 29.5037 82.0805 27.0204C82.3046 25.468 82.5717 22.6623 80.3366 22.4981C80.0511 22.4772 79.7404 22.4724 79.4595 22.5322ZM52.4541 29.9342C52.4497 29.9385 52.4452 30.0224 52.4807 29.9871C52.4851 29.9827 52.4895 29.8988 52.4541 29.9342Z" fill="white"/>
</svg>
