<svg width="1108" height="697" viewBox="0 0 1108 697" fill="none" xmlns="http://www.w3.org/2000/svg">
<path d="M200.363 132.792C170.288 128.35 128.779 124.558 154.853 118.671C154.853 118.671 728.991 18.4315 766.552 57.0158C798.627 89.9657 32.7073 281.209 5.0084 360.718C-28.1799 455.985 766.552 348.387 1104 331.482" stroke="#465071" stroke-width="7" stroke-linecap="round"/>
<path d="M407.475 301.503C504.405 289.9 666.655 268.848 771.258 250.939M771.258 250.939C826.059 241.556 865.036 233.036 870.509 227.189C880.548 216.461 835.744 210.14 790.288 205.539M771.258 250.939C777.659 235.546 784.064 220.285 790.288 205.539M771.258 250.939C756.383 286.707 741.53 323.184 729.032 355.551C689.134 466.427 650.035 592.008 580.988 693.149M790.288 205.539C788.984 205.407 791.599 205.666 790.288 205.539ZM790.288 205.539C788.792 205.909 791.832 205.16 790.288 205.539ZM790.288 205.539C814.506 199.558 837.043 193.596 842.453 191.223C842.453 191.223 925.031 163.406 919.657 138.169C914.517 114.026 888.797 104.251 834.129 102.406M790.288 205.539C790.288 205.539 763.563 198.04 718.684 199.171C645.06 201.027 500.48 211.093 511.144 236.528C521.81 261.962 584.835 253.219 615.015 245.668C660.562 235.703 738.172 218.31 790.288 205.539ZM790.288 205.539C807.419 164.96 823.76 126.89 834.129 102.406M790.288 205.539C790.075 206.041 790.501 205.034 790.288 205.539ZM834.129 102.406C834.947 100.474 833.379 104.184 834.129 102.406ZM834.129 102.406C836.517 103.201 834.129 102.406 870.509 74.3858C870.509 74.3858 956.868 6.62774 919.657 4.04456C889.89 1.97811 847.46 72.3335 834.129 102.404M834.129 102.404C768.706 103.36 659.007 93.2161 557.707 180.692C523.038 222.265 834.129 102.404 834.129 102.404Z" stroke="#465071" stroke-width="7" stroke-linecap="round"/>
<path d="M668.131 328.929L753.424 295.565C729.367 312.644 683.082 350.457 690.399 365.074C699.544 383.345 771.715 354.748 775.691 351.967M802.134 316.181L782.903 342.687C782.903 342.687 755.968 373.971 771.715 394.466C809.679 412.758 859.79 322.773 859.79 322.773C864.757 316.181 826.976 359.501 841.698 372.024C841.698 372.024 871.486 404.835 911.283 320.787C915.367 312.162 891.157 354.039 904.126 362.889C904.126 362.889 933.215 383.973 963.076 321.721C979.918 294.41 921.199 380.895 959.198 394.466" stroke="#465071" stroke-width="7" stroke-linecap="round"/>
</svg>
