<svg width="29" height="15" viewBox="0 0 29 15" fill="none" xmlns="http://www.w3.org/2000/svg">
<path d="M18.7778 4.68484L18.6821 5.16239H19.8944C19.8407 5.55892 19.7009 5.95006 19.6032 6.33795C19.3794 7.2304 19.1409 8.11745 18.9173 9.00883C18.7493 9.67871 18.5673 10.3454 18.3912 11.0131C18.2275 11.6322 18.0684 12.2632 17.7476 12.825C17.5173 13.228 17.1556 13.577 16.7038 13.7142C16.5715 13.7542 16.3096 13.8331 16.2198 13.6742C16.1612 13.5716 16.287 13.4722 16.3394 13.3976C16.441 13.2518 16.4418 13.0584 16.3136 12.9277C15.9915 12.597 15.3415 12.8844 15.3377 13.3339C15.3332 13.8374 15.9228 14.0773 16.3528 14.0632C17.2066 14.0362 17.9483 13.4182 18.4264 12.7613C19.5123 11.2713 19.9599 9.39994 20.4009 7.64204L20.7997 6.05269C20.8733 5.75881 20.9708 5.46168 21.0112 5.16239H22.0642C22.0952 5.01221 22.1466 4.86852 22.1599 4.71726H21.1389C21.4324 3.80211 21.6504 2.81565 22.2028 2.01395C22.4608 1.64012 22.8302 1.25114 23.3085 1.1928C23.4573 1.17551 23.7049 1.15824 23.7849 1.31815C23.8711 1.49102 23.6414 1.70709 23.6369 1.88644C23.625 2.35428 24.2736 2.4364 24.5461 2.16629C25.0513 1.66496 24.4001 1.01021 23.8829 0.910812C23.1139 0.76387 22.3252 1.14311 21.777 1.66605C21.2576 2.15982 20.9131 2.72488 20.5744 3.34938C20.3471 3.7686 20.1652 4.28398 19.735 4.54221C19.4464 4.71617 19.1006 4.68484 18.7778 4.68484ZM4.89831 4.53897C4.55581 4.58435 4.23719 4.6308 3.90916 4.75073C2.47055 5.27584 1.31102 6.57672 0.938483 8.05586C0.773175 8.7117 0.733523 9.47019 1.04944 10.0904C1.62305 11.2173 3.11612 11.2854 4.16436 10.8715C4.73516 10.6457 5.20245 10.2643 5.63215 9.83645C5.72939 9.73921 6.05611 9.49612 5.9592 9.33189C5.87968 9.19791 5.74635 9.28651 5.66402 9.36106C5.42243 9.57931 5.19953 9.80727 4.93018 9.99419C4.13 10.5485 2.8661 10.7386 2.25317 9.80403C1.9514 9.34376 1.99354 8.7333 2.07738 8.21468C2.25554 7.11154 2.88793 5.95763 3.81343 5.31259C4.20347 5.04032 4.76044 4.78965 5.24924 4.8534C5.33481 4.8642 5.42243 4.88257 5.50455 4.90958C5.55986 4.92795 5.61378 4.94955 5.66262 4.98197C6.12116 5.28125 5.49093 5.62592 5.37673 5.9252C5.23432 6.29796 5.50033 6.63722 5.88735 6.62317C6.54307 6.5994 6.74252 5.67778 6.49963 5.19373C6.21883 4.63406 5.4797 4.46334 4.89831 4.53897ZM12.1092 9.23141C11.3578 9.69817 10.6198 10.4534 9.65236 10.3713C8.86839 10.3043 8.22056 9.67546 8.18588 8.8824C8.1795 8.73438 8.16395 8.44698 8.24941 8.31949C8.31769 8.21792 8.52222 8.23414 8.63135 8.21901C8.96218 8.17255 9.29452 8.12501 9.62049 8.05153C10.6354 7.82248 11.7831 7.40544 12.4146 6.52919C12.7785 6.02461 12.952 5.23046 12.3644 4.80584C12.24 4.71616 12.096 4.65676 11.9497 4.61246C11.5109 4.48172 11.021 4.51413 10.5777 4.60273C8.98249 4.92038 7.79465 6.2126 7.21478 7.67337C6.81588 8.67928 6.82744 10.0709 7.80178 10.757C8.85511 11.4982 10.2664 10.9644 11.2158 10.3237C11.4737 10.1498 11.7218 9.94991 11.9497 9.73814C12.0302 9.66359 12.1632 9.56417 12.1944 9.45505C12.2184 9.36969 12.1529 9.29624 12.1092 9.23141ZM14.8532 7.86462C14.8265 7.56425 15.0104 7.19905 15.0949 6.91057C15.2443 6.40167 15.3933 5.89279 15.5462 5.38497C15.6274 5.11486 15.7372 4.83611 15.7785 4.55735C14.9634 4.57464 14.1676 4.87285 13.3535 4.90742L13.3855 5.19373C13.6911 5.13755 14.2826 5.0079 14.4118 5.41631C14.4583 5.56325 14.3868 5.77934 14.3538 5.9252C14.2663 6.31201 14.153 6.69126 14.0345 7.06942C13.7703 7.91325 13.5252 8.76463 13.2763 9.61387C13.1514 10.0385 12.9663 10.4772 12.9069 10.9169H13.9918C14.0544 10.4534 14.2123 9.98773 14.3729 9.55014C14.5023 9.19791 14.6196 8.83704 14.7884 8.50102C15.0511 7.977 15.3922 7.48214 15.7332 7.00566C16.0426 6.57456 16.3897 6.02999 16.8314 5.72315C16.8703 5.69613 16.9139 5.67022 16.9591 5.65509C17.2973 5.54164 17.2728 5.92304 17.4056 6.10996C17.5324 6.28823 17.7922 6.31741 17.9796 6.22125C18.0462 6.18667 18.1002 6.13913 18.1472 6.08078C18.2089 6.00515 18.2581 5.91871 18.2979 5.83011C18.4796 5.42386 18.6538 4.45147 17.9162 4.53251C17.8284 4.54115 17.7425 4.57139 17.661 4.60381C17.5014 4.66863 17.3539 4.75722 17.2143 4.8577C16.4855 5.37848 15.9411 6.14346 15.4488 6.87925C15.242 7.18827 14.9819 7.51455 14.8532 7.86462ZM25.9568 9.10498C25.8758 9.38914 25.7835 9.67221 25.7272 9.96286C25.6907 10.1519 25.6651 10.3432 25.67 10.5355C25.6812 10.9655 26.0318 11.1654 26.4354 11.093C26.9902 10.9936 27.4398 10.5917 27.802 10.1854C27.9171 10.0569 28.032 9.91858 28.1248 9.77272C28.1593 9.7187 28.203 9.65385 28.1803 9.58686C28.1507 9.49826 28.0451 9.45612 27.967 9.42263C27.7978 9.71867 27.5426 10.0515 27.265 10.2514C27.1115 10.3626 26.8978 10.4253 26.832 10.1854C26.7873 10.0223 26.8626 9.83429 26.9022 9.67655C26.9932 9.31459 27.0943 8.95588 27.1967 8.59609C27.45 7.70471 27.7094 6.8155 27.967 5.9252C28.0965 5.47681 28.3092 4.99061 28.3498 4.52602C28.1003 4.5876 27.8386 4.61785 27.5841 4.6535C27.4848 4.66647 27.3323 4.66323 27.2554 4.73562C27.0869 4.89661 27.0709 5.27043 26.9778 5.48004C26.9073 5.26503 26.8253 5.0522 26.6756 4.87717C26.0579 4.15542 24.9111 4.67511 24.2977 5.11162C23.4099 5.74368 22.7406 6.64802 22.3104 7.64204C22.1129 8.09907 21.9419 8.60473 21.9074 9.10498C21.8831 9.45829 21.8806 9.84617 21.9923 10.1854C22.044 10.3421 22.1239 10.4999 22.225 10.6306C22.8677 11.4604 23.9749 11.0314 24.6486 10.4891C25.152 10.0839 25.5351 9.58686 25.9568 9.10498Z" fill="#0A7AFF"/>
</svg>
