<svg width="94" height="118" viewBox="0 0 94 118" fill="none" xmlns="http://www.w3.org/2000/svg">
<path d="M62.4205 61.652V57.3899L42.3149 91.9525H61.7842V66.1495H67.6708L67.7067 85.1301L81.4678 61.652H62.4205Z" fill="#956B28"/>
<path d="M93.0785 55.7698V5.00604L63.3763 55.7698H93.0785Z" fill="#956B28"/>
<path d="M93.0785 91.9526L93.0785 55.7698L76.5784 85.3937H67.9845L67.9667 91.9526H93.0785Z" fill="#956B28"/>
<path d="M92.8088 0.145752H65.4096L32.8643 55.7699H60.0321L92.8088 0.145752Z" fill="#31AE4B"/>
<path d="M31.8105 61.5133V56.85L11.2629 91.9526H30.7568V66.4234L36.7209 66.4358V91.9209H38.2045L41.8484 85.5484L37.1467 85.544L50.9559 61.5575L31.8105 61.5133Z" fill="#31AE4B"/>
<path d="M82.3459 95.4628H72.827V117.875H93.0785V112.802H82.3459V95.4628Z" fill="#1AA537"/>
<path d="M69.0054 95.4628H57.5084L46.1007 104.774L46.1409 95.4628H36.3748V117.875H46.1007V108.287L58.1419 117.875H70.3973L54.5191 106.079L69.0054 95.4628Z" fill="#31AE4B"/>
<path d="M33.362 95.4628H21.4858L10.261 104.72L10.3011 95.4628H0.731445V117.875H10.261V108.287L22.3156 117.875H34.754L18.8759 106.079L33.362 95.4628Z" fill="#31AE4B"/>
<path d="M20.4429 62.2504H0.731445V91.9526H7.91351L11.4844 85.6666H6.40548L20.4429 62.2504Z" fill="#1A6CB2"/>
<path d="M0.731445 48.1107V0.145752H62.296L29.2843 55.7699H6.90008L6.93155 48.1107H0.731445Z" fill="#1A6CB2"/>
<path d="M12.3689 29.9146L10.4572 27.7704L5.62219 27.5277L5.37266 25.8195H7.80574L5.82717 23.7832V21.1895L8.71482 24.1519V21.9627H10.2388L10.4572 25.8195L12.6719 27.631L12.9616 24.8801L14.6104 25.4195V29.7258L18.2823 33.7939L18.5273 31.0653L20.096 31.443V35.7673L22.5691 37.9654L22.4845 31.0653L20.096 27.9367H16.4241L15.9294 26.2915L17.7832 25.9454L11.5578 19.9399H6.61148V18.2947H10.7335L7.80574 16.4831L8.42518 14.6986L9.61944 15.5482L9.41446 12.7207L10.7335 10.8642L11.5578 16.7978L18.7769 23.7832L18.9997 20.8749L20.4257 21.5806V25.4195L23.0638 27.9367V22.2009L20.9605 19.9399L15.9294 19.6252L15.2699 18.0834H20.096L17.6183 15.8808H13.2913L12.6719 13.8445L15.5595 13.6377L11.8876 10.5586L13.2913 8.93581L15.3546 10.5586L15.2699 7.23218L17.2484 6.64779L17.6183 13.4714L19.6815 15.2605V12.0959L20.9605 13.0129V16.1325L22.8588 18.0834V12.3476L18.7769 6.64779L20.9605 5.81618L23.0638 8.68859V6.06789H24.2981L24.5878 8.93581L26.1965 6.06789L28.6697 6.64779L24.5878 12.0959V18.0834L26.446 16.1325L26.1965 13.0129L27.8052 12.0959V15.2605L29.7436 13.4714L30.2784 6.64779L32.1321 7.23218V10.8642L33.8879 8.93581L35.5545 10.3517L31.8024 13.8445L34.8415 14.0108L34.1553 15.5931L29.7436 15.8808L27.2214 18.0834H32.1321L31.6241 19.6252L26.446 19.9399L24.5878 21.9627V27.9367L26.7758 25.4195V21.5806L28.3399 20.8749L28.6697 23.7832L35.9155 16.4831L36.8023 10.8642L37.9653 12.7207L37.6623 15.5931L39.0838 14.6986L39.7389 16.1325L36.6151 18.2947L40.8574 18.0834V19.9399H35.7773L29.3871 26.2915H31.6241L31.0181 27.9367H27.0788L24.9354 30.6428V37.7676L27.3595 35.7673L27.2214 31.443L28.946 30.6428L29.1064 33.7939L32.8139 29.7258V25.4195L34.494 24.8801L34.8415 27.631L36.9894 25.8195V22.2009L38.5491 21.9627V24.1519L41.6283 21.1895V23.3966L39.6008 25.8195H41.9091L41.7442 27.2805L37.2256 27.7704L35.3406 29.9146H42.3146L41.2852 31.6587H33.2729L30.4967 35.5875L33.8879 35.0031L33.2729 36.6798L28.1929 37.5159L25.1983 40.7477V52.5296H22.2439V40.7477L18.9997 37.5159L14.2049 36.6798L13.5944 35.0031L17.2707 35.5875L13.884 31.6587H6.09901L5.05182 29.9146H12.3689Z" fill="white"/>
</svg>
