<svg width="37" height="18" viewBox="0 0 37 18" fill="none" xmlns="http://www.w3.org/2000/svg">
<path d="M18.1829 0.0209616C17.7829 0.0728235 17.3728 0.0220347 16.9704 0.0404024C16.1189 0.077138 15.2669 0.150614 14.4179 0.23489C12.9589 0.380752 11.496 0.656251 10.0786 1.02793C8.18813 1.52386 6.30557 2.18077 4.62245 3.18668C2.87019 4.23472 1.05494 5.702 0.52174 7.76567C0.421151 8.15463 0.378906 8.54142 0.378906 8.94227C0.378906 11.6758 2.63919 13.6282 4.84589 14.8826C6.67789 15.9242 8.7035 16.5952 10.7486 17.0781C13.2497 17.6691 15.8107 17.909 18.3743 17.909C19.9021 17.909 21.4212 17.8442 22.937 17.6454C26.6383 17.1602 30.5391 16.1435 33.562 13.8659C35.2345 12.6061 36.6126 10.7736 36.4627 8.59221C36.3088 6.35458 34.4697 4.57723 32.6686 3.45896C29.4611 1.46875 25.6732 0.563334 21.9479 0.192737C21.0142 0.0998181 20.0792 0.0382394 19.1402 0.0382394C18.8222 0.0382394 18.499 -0.0211762 18.1829 0.0209616Z" fill="white"/>
</svg>
