<svg width="2042" height="102" viewBox="0 0 2042 102" fill="none" xmlns="http://www.w3.org/2000/svg">
<path d="M0.360107 12.4939C0.360107 6.1156 5.53076 0.944946 11.9091 0.944946H456.545C462.923 0.944946 468.094 6.1156 468.094 12.4939V89.8721C468.094 96.2504 462.923 101.421 456.545 101.421H11.9091C5.53075 101.421 0.360107 96.2504 0.360107 89.8721V12.4939Z" fill="#0A7AFF"/>
<path d="M1657.64 12.4939C1657.64 6.1156 1662.81 0.944946 1669.19 0.944946H2030.09C2036.47 0.944946 2041.64 6.1156 2041.64 12.4939V89.8721C2041.64 96.2504 2036.47 101.421 2030.09 101.421H1669.19C1662.81 101.421 1657.64 96.2504 1657.64 89.8721V12.4939Z" fill="#0A7AFF"/>
<path d="M37.6342 72.5486V30.5523H54.4491C57.5387 30.5523 60.1156 31.0103 62.1798 31.9262C64.2441 32.8422 65.7957 34.1135 66.8347 35.7403C67.8737 37.3535 68.3932 39.2127 68.3932 41.318C68.3932 42.9585 68.0651 44.4007 67.4089 45.6447C66.7527 46.8751 65.8504 47.8867 64.7021 48.6796C63.5674 49.4589 62.2687 50.0125 60.8059 50.3406V50.7507C62.4054 50.8191 63.9024 51.2702 65.2968 52.1041C66.7048 52.938 67.8463 54.1069 68.7213 55.6107C69.5962 57.1008 70.0336 58.8779 70.0336 60.9422C70.0336 63.1705 69.48 65.1596 68.3727 66.9095C67.279 68.6456 65.659 70.0195 63.5127 71.0312C61.3664 72.0428 58.7212 72.5486 55.5769 72.5486H37.6342ZM46.5133 65.2895H53.7519C56.2263 65.2895 58.0308 64.8179 59.1655 63.8746C60.3001 62.9176 60.8675 61.6463 60.8675 60.0605C60.8675 58.8985 60.5872 57.8732 60.0267 56.9846C59.4662 56.096 58.6665 55.3988 57.6275 54.893C56.6022 54.3871 55.3787 54.1342 53.9569 54.1342H46.5133V65.2895ZM46.5133 48.126H53.0957C54.3124 48.126 55.3924 47.9141 56.3356 47.4903C57.2926 47.0528 58.0445 46.4376 58.5913 45.6447C59.1518 44.8518 59.432 43.9017 59.432 42.7944C59.432 41.277 58.8921 40.0534 57.8121 39.1238C56.7458 38.1942 55.2283 37.7294 53.2597 37.7294H46.5133V48.126Z" fill="white"/>
<path d="M76.3887 72.5486V30.5523H104.687V37.873H85.2678V47.8799H103.231V55.2005H85.2678V65.228H104.769V72.5486H76.3887ZM87.4619 26.4921L91.8092 17.1619H99.8885L93.6342 26.4921H87.4619Z" fill="white"/>
<path d="M147.45 30.5523V72.5486H139.781L121.51 46.1164H121.203V72.5486H112.324V30.5523H120.116L138.243 56.9641H138.612V30.5523H147.45Z" fill="white"/>
<path d="M155.364 72.5486V30.5523H183.662V37.873H164.243V47.8799H182.206V55.2005H164.243V65.228H183.744V72.5486H155.364Z" fill="white"/>
<path d="M191.299 72.5486V30.5523H219.105V37.873H200.178V47.8799H217.259V55.2005H200.178V72.5486H191.299Z" fill="white"/>
<path d="M234.534 30.5523V72.5486H225.655V30.5523H234.534Z" fill="white"/>
<path d="M279.471 45.2551H270.489C270.325 44.0931 269.99 43.061 269.484 42.1587C268.979 41.2428 268.329 40.4636 267.536 39.821C266.743 39.1785 265.828 38.6864 264.789 38.3446C263.763 38.0028 262.649 37.832 261.446 37.832C259.272 37.832 257.379 38.3719 255.766 39.4519C254.153 40.5182 252.902 42.0767 252.013 44.1273C251.125 46.1642 250.68 48.6386 250.68 51.5505C250.68 54.5443 251.125 57.0598 252.013 59.0967C252.916 61.1336 254.173 62.6716 255.786 63.7105C257.4 64.7495 259.266 65.269 261.385 65.269C262.574 65.269 263.674 65.1118 264.686 64.7974C265.711 64.4829 266.62 64.025 267.413 63.4234C268.206 62.8083 268.862 62.0632 269.382 61.1883C269.915 60.3134 270.284 59.3154 270.489 58.1944L279.471 58.2354C279.238 60.163 278.657 62.0222 277.728 63.8131C276.812 65.5902 275.575 67.1829 274.016 68.591C272.471 69.9854 270.626 71.0927 268.48 71.9129C266.347 72.7195 263.934 73.1228 261.241 73.1228C257.495 73.1228 254.146 72.2752 251.193 70.58C248.254 68.8849 245.93 66.431 244.221 63.2184C242.526 60.0058 241.678 56.1165 241.678 51.5505C241.678 46.9708 242.54 43.0747 244.262 39.8621C245.985 36.6494 248.322 34.2024 251.275 32.5209C254.228 30.8257 257.55 29.9782 261.241 29.9782C263.674 29.9782 265.93 30.3199 268.008 31.0035C270.1 31.687 271.952 32.685 273.565 33.9973C275.178 35.296 276.491 36.8887 277.502 38.7752C278.528 40.6618 279.184 42.8218 279.471 45.2551Z" fill="white"/>
<path d="M295.294 30.5523V72.5486H286.415V30.5523H295.294Z" fill="white"/>
<path d="M310.416 72.5486H300.901L315.399 30.5523H326.841L341.318 72.5486H331.804L321.284 40.1491H320.956L310.416 72.5486ZM309.821 56.0413H332.296V62.9723H309.821V56.0413Z" fill="white"/>
<path d="M355.83 30.5523V72.5486H346.951V30.5523H355.83Z" fill="white"/>
<path d="M363.712 72.5486V30.5523H380.281C383.453 30.5523 386.16 31.1197 388.402 32.2543C390.657 33.3753 392.373 34.968 393.549 37.0322C394.738 39.0828 395.333 41.4957 395.333 44.2708C395.333 47.0597 394.731 49.4589 393.528 51.4684C392.325 53.4644 390.582 54.9955 388.299 56.0618C386.03 57.1281 383.282 57.6613 380.056 57.6613H368.962V50.5252H378.62C380.315 50.5252 381.723 50.2928 382.844 49.828C383.965 49.3632 384.799 48.666 385.346 47.7364C385.907 46.8068 386.187 45.6516 386.187 44.2708C386.187 42.8764 385.907 41.7008 385.346 40.7438C384.799 39.7869 383.959 39.0623 382.824 38.5702C381.703 38.0644 380.288 37.8115 378.579 37.8115H372.591V72.5486H363.712ZM386.392 53.437L396.83 72.5486H387.028L376.816 53.437H386.392Z" fill="white"/>
<path d="M402.185 72.5486V30.5523H430.483V37.873H411.064V47.8799H429.027V55.2005H411.064V65.228H430.565V72.5486H402.185Z" fill="white"/>
<path d="M1709.67 72.5486H1694.78V30.5523H1709.79C1714.02 30.5523 1717.65 31.3931 1720.7 33.0746C1723.75 34.7424 1726.09 37.1416 1727.73 40.2722C1729.39 43.4028 1730.21 47.1485 1730.21 51.5095C1730.21 55.8841 1729.39 59.6435 1727.73 62.7878C1726.09 65.932 1723.74 68.3449 1720.66 70.0264C1717.6 71.7079 1713.93 72.5486 1709.67 72.5486ZM1703.66 64.9409H1709.3C1711.92 64.9409 1714.13 64.4761 1715.92 63.5465C1717.73 62.6032 1719.08 61.1473 1719.98 59.1787C1720.9 57.1965 1721.36 54.64 1721.36 51.5095C1721.36 48.4062 1720.9 45.8703 1719.98 43.9017C1719.08 41.9332 1717.73 40.4841 1715.94 39.5545C1714.15 38.6249 1711.94 38.1601 1709.32 38.1601H1703.66V64.9409Z" fill="white"/>
<path d="M1775.96 51.5505C1775.96 56.1301 1775.09 60.0263 1773.36 63.2389C1771.64 66.4515 1769.28 68.9054 1766.3 70.6005C1763.34 72.282 1760 73.1228 1756.3 73.1228C1752.56 73.1228 1749.22 72.2752 1746.25 70.58C1743.28 68.8849 1740.94 66.431 1739.22 63.2184C1737.49 60.0058 1736.63 56.1165 1736.63 51.5505C1736.63 46.9708 1737.49 43.0747 1739.22 39.8621C1740.94 36.6494 1743.28 34.2024 1746.25 32.5209C1749.22 30.8257 1752.56 29.9782 1756.3 29.9782C1760 29.9782 1763.34 30.8257 1766.3 32.5209C1769.28 34.2024 1771.64 36.6494 1773.36 39.8621C1775.09 43.0747 1775.96 46.9708 1775.96 51.5505ZM1766.96 51.5505C1766.96 48.5839 1766.52 46.0822 1765.63 44.0453C1764.75 42.0083 1763.51 40.4636 1761.92 39.4109C1760.32 38.3583 1758.44 37.832 1756.3 37.832C1754.15 37.832 1752.28 38.3583 1750.68 39.4109C1749.08 40.4636 1747.83 42.0083 1746.95 44.0453C1746.07 46.0822 1745.63 48.5839 1745.63 51.5505C1745.63 54.517 1746.07 57.0187 1746.95 59.0557C1747.83 61.0926 1749.08 62.6374 1750.68 63.69C1752.28 64.7427 1754.15 65.269 1756.3 65.269C1758.44 65.269 1760.32 64.7427 1761.92 63.69C1763.51 62.6374 1764.75 61.0926 1765.63 59.0557C1766.52 57.0187 1766.96 54.517 1766.96 51.5505Z" fill="white"/>
<path d="M1818.24 30.5523V72.5486H1810.57L1792.3 46.1164H1792V72.5486H1783.12V30.5523H1790.91L1809.04 56.9641H1809.41V30.5523H1818.24Z" fill="white"/>
<path d="M1833.4 72.5486H1823.88L1838.38 30.5523H1849.82L1864.3 72.5486H1854.78L1844.26 40.1491H1843.94L1833.4 72.5486ZM1832.8 56.0413H1855.28V62.9723H1832.8V56.0413Z" fill="white"/>
<path d="M1863.2 37.873V30.5523H1897.69V37.873H1884.83V72.5486H1876.06V37.873H1863.2Z" fill="white"/>
<path d="M1903.95 72.5486V30.5523H1932.25V37.873H1912.83V47.8799H1930.79V55.2005H1912.83V65.228H1932.33V72.5486H1903.95Z" fill="white"/>
<path d="M1965.82 30.5523H1974.7V57.8253C1974.7 60.8875 1973.97 63.567 1972.51 65.8637C1971.06 68.1603 1969.03 69.9512 1966.42 71.2362C1963.81 72.5076 1960.76 73.1433 1957.29 73.1433C1953.81 73.1433 1950.76 72.5076 1948.15 71.2362C1945.54 69.9512 1943.51 68.1603 1942.06 65.8637C1940.61 63.567 1939.88 60.8875 1939.88 57.8253V30.5523H1948.76V57.0666C1948.76 58.6661 1949.11 60.0878 1949.81 61.3318C1950.52 62.5759 1951.52 63.5533 1952.8 64.2642C1954.09 64.9751 1955.58 65.3305 1957.29 65.3305C1959.01 65.3305 1960.51 64.9751 1961.78 64.2642C1963.07 63.5533 1964.06 62.5759 1964.76 61.3318C1965.47 60.0878 1965.82 58.6661 1965.82 57.0666V30.5523Z" fill="white"/>
<path d="M1982.58 72.5486V30.5523H1999.15C2002.33 30.5523 2005.03 31.1197 2007.27 32.2543C2009.53 33.3753 2011.25 34.968 2012.42 37.0322C2013.61 39.0828 2014.2 41.4957 2014.2 44.2708C2014.2 47.0597 2013.6 49.4589 2012.4 51.4684C2011.2 53.4644 2009.45 54.9955 2007.17 56.0618C2004.9 57.1281 2002.15 57.6613 1998.93 57.6613H1987.83V50.5252H1997.49C1999.19 50.5252 2000.6 50.2928 2001.72 49.828C2002.84 49.3632 2003.67 48.666 2004.22 47.7364C2004.78 46.8068 2005.06 45.6516 2005.06 44.2708C2005.06 42.8764 2004.78 41.7008 2004.22 40.7438C2003.67 39.7869 2002.83 39.0623 2001.7 38.5702C2000.58 38.0644 1999.16 37.8115 1997.45 37.8115H1991.46V72.5486H1982.58ZM2005.26 53.437L2015.7 72.5486H2005.9L1995.69 53.437H2005.26Z" fill="white"/>
</svg>
