<svg width="198" height="252" viewBox="0 0 198 252" fill="none" xmlns="http://www.w3.org/2000/svg">
<path d="M132.284 131.633V122.518L89.2872 196.432H130.923V141.251H143.512L143.589 181.842L173.017 131.633H132.284Z" fill="#956B28"/>
<path d="M197.848 119.053V10.493L134.328 119.053H197.848Z" fill="#956B28"/>
<path d="M197.848 196.432V119.053L162.561 182.405H144.183L144.145 196.432H197.848Z" fill="#956B28"/>
<path d="M197.27 0.098877H138.676L69.0765 119.053H127.176L197.27 0.098877Z" fill="#31AE4C"/>
<path d="M66.8223 131.336V121.363L22.8806 196.432H64.569V141.836L77.3235 141.863V196.364H80.4963L88.2888 182.736L78.2341 182.727L107.766 131.43L66.8223 131.336Z" fill="#31AE4C"/>
<path d="M174.896 203.938H154.539V251.867H197.848V241.018H174.896V203.938Z" fill="#31AE4C"/>
<path d="M146.365 203.938H121.778L97.3826 223.85L97.4684 203.938H76.5834V251.867H97.3826V231.363L123.133 251.867H149.342L115.386 226.641L146.365 203.938Z" fill="#31AE4C"/>
<path d="M70.1419 203.938H44.7442L20.7394 223.735L20.8252 203.938H0.360107V251.867H20.7394V231.363L46.5188 251.867H73.1187L39.1628 226.641L70.1419 203.938Z" fill="#31AE4C"/>
<path d="M42.5139 132.912H0.360107V196.432H15.7192L23.3557 182.989H12.4943L42.5139 132.912Z" fill="#1A6CB2"/>
<path d="M0.360107 102.674V0.098877H132.018L61.4215 119.053H13.552L13.6193 102.674H0.360107Z" fill="#1A6CB2"/>
<path d="M25.2472 63.7608L21.1589 59.1754L10.8191 58.6563L10.2854 55.0033H15.4887L11.2574 50.6485V45.1018L17.4328 51.4369V46.7553H20.6919L21.1589 55.0033L25.8951 58.8773L26.5147 52.9942L30.0406 54.1478V63.357L37.8931 72.0569L38.4172 66.2217L41.7718 67.0293V76.277L47.0608 80.9777L46.8798 66.2217L41.7718 59.531H33.9193L32.8614 56.0127L36.8259 55.2724L23.5127 42.4295H12.9347V38.911H21.7498L15.4887 35.037L16.8134 31.2207L19.3673 33.0376L18.929 26.991L21.7498 23.0208L23.5127 35.7099L38.951 50.6485L39.4274 44.429L42.477 45.9382V54.1478L48.1186 59.531V47.2648L43.6206 42.4295L32.8614 41.7565L31.4511 38.4593H41.7718L36.4733 33.7489H27.2198L25.8951 29.3941L32.0705 28.952L24.218 22.3671L27.2198 18.8968L31.6321 22.3671L31.4511 15.2535L35.6822 14.0037L36.4733 28.5963L40.8855 32.4223V25.6547L43.6206 27.6158V34.2872L47.6802 38.4593V26.1931L38.951 14.0037L43.6206 12.2253L48.1186 18.3681V12.7636H50.7583L51.3778 18.8968L54.818 12.7636L60.107 14.0037L51.3778 25.6547V38.4593L55.3517 34.2872L54.818 27.6158L58.2584 25.6547V32.4223L62.4037 28.5963L63.5474 14.0037L67.5117 15.2535V23.0208L71.2664 18.8968L74.8306 21.9248L66.8065 29.3941L73.3058 29.7499L71.8382 33.1336L62.4037 33.7489L57.0099 38.4593H67.5117L66.4253 41.7565L55.3517 42.4295L51.3778 46.7553V59.531L56.057 54.1478V45.9382L59.4019 44.429L60.107 50.6485L75.6025 35.037L77.499 23.0208L79.9862 26.991L79.3381 33.1336L82.3782 31.2207L83.779 34.2872L77.0987 38.911L86.1709 38.4593V42.4295H75.3071L61.6413 56.0127H66.4253L65.1292 59.531H56.7049L52.1211 65.318V80.5548L57.3053 76.277L57.0099 67.0293L60.6979 65.318L61.041 72.0569L68.9697 63.357V54.1478L72.5625 52.9942L73.3058 58.8773L77.8991 55.0033V47.2648L81.2345 46.7553V51.4369L87.8197 45.1018V49.8219L83.4836 55.0033H88.4201L88.0675 58.1276L78.4042 59.1754L74.3732 63.7608H89.2872L87.0858 67.4906H69.9513L64.0143 75.8925L71.2664 74.6428L69.9513 78.2284L59.0874 80.0165L52.6834 86.9279V112.124H46.3652V86.9279L39.4274 80.0165L29.1735 78.2284L27.8679 74.6428L35.7299 75.8925L28.4873 67.4906H11.8387L9.59929 63.7608H25.2472Z" fill="white"/>
</svg>
