<svg width="58" height="77" viewBox="0 0 58 77" fill="none" xmlns="http://www.w3.org/2000/svg">
<path d="M0.564453 33.6314C11.0372 32.378 28.5685 30.1037 39.8699 28.1686M39.8699 28.1686C45.7907 27.1551 50.0023 26.2345 50.5933 25.6025C51.6781 24.4431 46.8366 23.7603 41.926 23.2633M39.8699 28.1686C40.5614 26.5057 41.2529 24.857 41.926 23.2633M39.8699 28.1686C38.2622 32.0333 36.6577 35.9738 35.3072 39.4712C30.9962 51.4513 26.7728 65.0197 19.3123 75.9474M41.926 23.2633C44.5428 22.6172 46.977 21.9732 47.5616 21.7161C47.5616 21.7161 56.4839 18.7113 55.9037 15.9842C55.3483 13.376 52.5694 12.3194 46.6626 12.1206M41.926 23.2633C43.7768 18.8788 45.5422 14.7655 46.6626 12.1206M46.6626 12.1206C46.9209 12.2059 46.6626 12.1206 50.5933 9.09311C50.5933 9.09311 59.924 1.77193 55.9037 1.49209C52.6872 1.26952 48.1029 8.87051 46.6626 12.1194M41.926 23.2633C41.7844 23.2492 42.0675 23.2773 41.926 23.2633V23.2633ZM41.926 23.2633C41.7639 23.3033 42.0924 23.2222 41.926 23.2633V23.2633ZM41.926 23.2633C41.926 23.2633 39.0379 22.4529 34.1889 22.575C26.2347 22.776 10.6136 23.8629 11.7654 26.6116C12.9182 29.3592 19.7272 28.4149 22.988 27.5992C27.9094 26.5219 36.2947 24.643 41.926 23.2633ZM41.926 23.2633C41.9022 23.3173 41.9487 23.2082 41.926 23.2633V23.2633ZM46.6626 12.1206C46.7512 11.9109 46.5816 12.3118 46.6626 12.1206V12.1206ZM46.6626 12.1194C39.5944 12.2232 27.7419 11.1276 16.797 20.5783C13.0511 25.0709 46.6626 12.1194 46.6626 12.1194Z" stroke="#465071" stroke-linecap="round"/>
</svg>
