<svg width="198" height="253" viewBox="0 0 198 253" fill="none" xmlns="http://www.w3.org/2000/svg">
<path d="M132.052 132.374V123.26L89.0553 197.173H130.691V141.993H143.28L143.357 182.583L172.785 132.374H132.052Z" fill="#956B28"/>
<path d="M197.616 119.795V11.2347L134.096 119.795H197.616Z" fill="#956B28"/>
<path d="M197.616 197.173V119.795L162.329 183.147H143.951L143.913 197.173H197.616Z" fill="#956B28"/>
<path d="M197.038 0.840576H138.444L68.8446 119.795H126.944L197.038 0.840576Z" fill="#31AE4B"/>
<path d="M66.5904 132.078V122.105L22.6487 197.173H64.337V142.578L77.0916 142.605V197.105H80.2643L88.0569 183.478L78.0022 183.468L107.534 132.172L66.5904 132.078Z" fill="#31AE4B"/>
<path d="M174.664 204.68H154.307V252.608H197.616V241.76H174.664V204.68Z" fill="#1AA537"/>
<path d="M146.133 204.68H121.547L97.1506 224.591L97.2365 204.68H76.3514V252.608H97.1506V232.105L122.901 252.608H149.11L115.154 227.382L146.133 204.68Z" fill="#31AE4B"/>
<path d="M69.91 204.68H44.5122L20.5074 224.476L20.5933 204.68H0.128174V252.608H20.5074V232.105L46.2869 252.608H72.8867L38.9308 227.382L69.91 204.68Z" fill="#31AE4B"/>
<path d="M42.2819 133.654H0.128174V197.173H15.4873L23.1238 183.73H12.2623L42.2819 133.654Z" fill="#1A6CB2"/>
<path d="M0.128174 103.416V0.840576H131.787L61.1896 119.795H13.32L13.3873 103.416H0.128174Z" fill="#1A6CB2"/>
<path d="M25.0153 64.5025L20.927 59.9171L10.5871 59.398L10.0535 55.745H15.2567L11.0255 51.3902V45.8435L17.2008 52.1786V47.497H20.46L20.927 55.745L25.6632 59.619L26.2827 53.7359L29.8087 54.8895V64.0987L37.6612 72.7986L38.1853 66.9634L41.5399 67.771V77.0187L46.8289 81.7194L46.6478 66.9634L41.5399 60.2727H33.6874L32.6295 56.7544L36.5939 56.0141L23.2808 43.1712H12.7028V39.6527H21.5179L15.2567 35.7787L16.5814 31.9624L19.1354 33.7793L18.6971 27.7327L21.5179 23.7625L23.2808 36.4516L38.7191 51.3902L39.1955 45.1707L42.245 46.6799V54.8895L47.8866 60.2727V48.0065L43.3887 43.1712L32.6295 42.4982L31.2192 39.201H41.5399L36.2414 34.4906H26.9879L25.6632 30.1358L31.8386 29.6937L23.9861 23.1088L26.9879 19.6385L31.4002 23.1088L31.2192 15.9952L35.4503 14.7454L36.2414 29.338L40.6535 33.164V26.3964L43.3887 28.3575V35.0289L47.4483 39.201V26.9348L38.7191 14.7454L43.3887 12.967L47.8866 19.1098V13.5053H50.5264L51.1459 19.6385L54.5861 13.5053L59.8751 14.7454L51.1459 26.3964V39.201L55.1197 35.0289L54.5861 28.3575L58.0264 26.3964V33.164L62.1718 29.338L63.3154 14.7454L67.2797 15.9952V23.7625L71.0345 19.6385L74.5986 22.6665L66.5746 30.1358L73.0738 30.4916L71.6063 33.8753L62.1718 34.4906L56.778 39.201H67.2797L66.1933 42.4982L55.1197 43.1712L51.1459 47.497V60.2727L55.825 54.8895V46.6799L59.1699 45.1707L59.8751 51.3902L75.3705 35.7787L77.267 23.7625L79.7543 27.7327L79.1062 33.8753L82.1462 31.9624L83.5471 35.0289L76.8667 39.6527L85.939 39.201V43.1712H75.0751L61.4094 56.7544H66.1933L64.8973 60.2727H56.473L51.8891 66.0597V81.2965L57.0733 77.0187L56.778 67.771L60.466 66.0597L60.809 72.7986L68.7378 64.0987V54.8895L72.3306 53.7359L73.0738 59.619L77.6672 55.745V48.0065L81.0026 47.497V52.1786L87.5878 45.8435V50.5636L83.2517 55.745H88.1881L87.8355 58.8693L78.1723 59.9171L74.1412 64.5025H89.0553L86.8539 68.2323H69.7194L63.7823 76.6342L71.0345 75.3845L69.7194 78.9701L58.8554 80.7582L52.4514 87.6696V112.866H46.1332V87.6696L39.1955 80.7582L28.9415 78.9701L27.636 75.3845L35.498 76.6342L28.2554 68.2323H11.6068L9.36736 64.5025H25.0153Z" fill="white"/>
</svg>
