<svg width="15" height="19" viewBox="0 0 15 19" fill="none" xmlns="http://www.w3.org/2000/svg">
<path d="M2.94547 9.80167L2.17592 8.92957L0.229602 8.83084L0.129154 8.13606H1.10858L0.312114 7.30782V6.25288L1.47453 7.45777V6.56735H2.08801L2.17592 8.13606L3.06744 8.87287L3.18405 7.75395L3.84776 7.97335V9.72488L5.32587 11.3795L5.42453 10.2697L6.05597 10.4233V12.1822L7.05154 13.0762L7.01746 10.2697L6.05597 8.9972H4.57786L4.37873 8.32804L5.12497 8.18725L2.61898 5.74462H0.627836V5.07543H2.28714L1.10858 4.33862L1.35794 3.61279L1.83868 3.95834L1.75617 2.80832L2.28714 2.05322L2.61898 4.4666L5.525 7.30782L5.61468 6.1249L6.18871 6.41195V7.97335L7.25065 8.9972V6.66426L6.40398 5.74462L4.37873 5.61662L4.11326 4.98952H6.05597L5.05861 4.09362H3.31679L3.06744 3.26539L4.22985 3.18129L2.75174 1.92889L3.31679 1.26887L4.14734 1.92889L4.11326 0.575936L4.9097 0.338246L5.05861 3.11364L5.88913 3.84132V2.55417L6.40398 2.92717V4.19601L7.16813 4.98952V2.65657L5.525 0.338246L6.40398 0L7.25065 1.16831V0.102382H7.74754L7.86415 1.26887L8.51172 0.102382L9.50729 0.338246L7.86415 2.55417V4.98952L8.61216 4.19601L8.51172 2.92717L9.1593 2.55417V3.84132L9.9396 3.11364L10.1549 0.338246L10.9011 0.575936V2.05322L11.6079 1.26887L12.2788 1.84478L10.7684 3.26539L11.9917 3.33304L11.7155 3.97661L9.9396 4.09362L8.9243 4.98952H10.9011L10.6966 5.61662L8.61216 5.74462L7.86415 6.56735V8.9972L8.74493 7.97335V6.41195L9.37455 6.1249L9.50729 7.30782L12.4241 4.33862L12.781 2.05322L13.2492 2.80832L13.1272 3.97661L13.6995 3.61279L13.9632 4.19601L12.7057 5.07543L14.4134 4.98952V5.74462H12.3685L9.79609 8.32804H10.6966L10.4526 8.9972H8.86689L8.00405 10.0979V12.9958L8.9799 12.1822L8.9243 10.4233L9.61851 10.0979L9.68308 11.3795L11.1755 9.72488V7.97335L11.8518 7.75395L11.9917 8.87287L12.8564 8.13606V6.66426L13.4842 6.56735V7.45777L14.7238 6.25288V7.15059L13.9076 8.13606H14.8368L14.7704 8.73028L12.9514 8.92957L12.1927 9.80167H15L14.5856 10.5111H11.3603L10.2428 12.109L11.6079 11.8713L11.3603 12.5533L9.31535 12.8934L8.1099 14.2079V19H6.9206V14.2079L5.61468 12.8934L3.68453 12.5533L3.43878 11.8713L4.91868 12.109L3.55537 10.5111H0.421543L0 9.80167H2.94547Z" fill="white"/>
</svg>
