<svg width="19" height="7" viewBox="0 0 19 7" fill="none" xmlns="http://www.w3.org/2000/svg">
<path d="M0.3125 3.89528C1.3991 3.89312 2.67521 3.38856 3.35416 2.52852C3.63443 2.17304 3.95424 1.46532 3.5602 1.07312C3.18032 0.693876 2.48592 0.934832 2.09934 1.16821C1.37144 1.60688 0.870765 2.29298 0.555168 3.06874C0.450041 3.32805 0.336918 3.61652 0.3125 3.89528ZM17.606 0.922945C17.1463 1.02127 16.7413 1.38646 16.4496 1.73329C15.7891 2.51986 15.2671 3.54737 15.0881 4.563C14.9866 5.13888 14.9171 6.11778 15.6916 6.2658C15.796 6.28525 15.9062 6.28417 16.0107 6.2658C16.5448 6.16964 16.9937 5.75799 17.332 5.35823C17.9713 4.60407 18.5115 3.7127 18.6547 2.71976C18.7444 2.0985 18.8513 0.975901 17.957 0.909993C17.8427 0.901349 17.7184 0.899174 17.606 0.922945ZM6.80024 3.88555C6.79851 3.88663 6.79667 3.92014 6.81083 3.9061C6.81266 3.90502 6.81439 3.8715 6.80024 3.88555Z" fill="white"/>
</svg>
