<svg width="138" height="173" viewBox="0 0 138 173" fill="none" xmlns="http://www.w3.org/2000/svg">
<path d="M27.0983 89.2468L20.0185 81.3061L2.11234 80.4071L1.18822 74.081H10.199L2.87145 66.5396V56.9341L13.5657 67.9049V59.7975H19.2097L20.0185 74.081L28.2204 80.7898L29.2933 70.6018L35.3994 72.5995V88.5476L48.998 103.614L49.9056 93.5085L55.7149 94.907V110.922L64.8742 119.062L64.5607 93.5085L55.7149 81.9219H42.1163L40.2843 75.829L47.1498 74.5471L24.0946 52.3063H5.77609V46.2132H21.0417L10.199 39.5043L12.493 32.8954L16.9159 36.0417L16.1568 25.5705L21.0417 18.6951L24.0946 40.6696L50.83 66.5396L51.655 55.7688L56.9361 58.3825V72.5995L66.7059 81.9219V60.6798L58.9166 52.3063L40.2843 51.1408L37.842 45.4309H55.7149L46.5392 37.2735H30.5145L28.2204 29.7322L38.9146 28.9665L25.316 17.5631L30.5145 11.5534L38.1555 17.5631L37.842 5.24405L45.1693 3.07982L46.5392 28.3505L54.18 34.9763V23.2564L58.9166 26.6526V38.2057L65.9468 45.4309V24.1888L50.83 3.07982L58.9166 0L66.7059 10.6378V0.932216H71.2773L72.3502 11.5534L78.3078 0.932216L87.467 3.07982L72.3502 23.2564V45.4309L79.2319 38.2057L78.3078 26.6526L84.2656 23.2564V34.9763L91.4443 28.3505L93.4249 3.07982L100.29 5.24405V18.6951L106.792 11.5534L112.965 16.7972L99.0689 29.7322L110.324 30.3482L107.783 36.208L91.4443 37.2735L82.1036 45.4309H100.29L98.4086 51.1408L79.2319 52.3063L72.3502 59.7975V81.9219L80.4533 72.5995V58.3825L86.2459 55.7688L87.467 66.5396L114.301 39.5043L117.586 18.6951L121.893 25.5705L120.771 36.208L126.035 32.8954L128.461 38.2057L116.892 46.2132L132.603 45.4309V52.3063H113.79L90.1241 75.829H98.4086L96.1643 81.9219H81.5754L73.6373 91.9436V118.33L82.6151 110.922L82.1036 94.907L88.4903 91.9436L89.0844 103.614L102.815 88.5476V72.5995L109.037 70.6018L110.324 80.7898L118.279 74.081V60.6798L124.055 59.7975V67.9049L135.459 56.9341V65.108L127.95 74.081H136.498L135.888 79.4915L119.153 81.3061L112.172 89.2468H138L134.188 95.706H104.515L94.2334 110.256L106.792 108.092L104.515 114.301L85.7012 117.398L74.6111 129.367V173H63.6695V129.367L51.655 117.398L33.8977 114.301L31.6368 108.092L45.2519 110.256L32.7094 95.706H3.87819L0 89.2468H27.0983Z" fill="white"/>
</svg>
