<svg width="194" height="96" viewBox="0 0 194 96" fill="none" xmlns="http://www.w3.org/2000/svg">
<path d="M95.9329 0.247474C93.7953 0.527174 91.6034 0.258146 89.4528 0.351986C84.9016 0.550574 80.348 0.94121 75.8106 1.39363C68.0129 2.17115 60.1943 3.64806 52.6188 5.63301C42.515 8.28035 32.4537 11.7907 23.4585 17.1691C14.0931 22.7689 4.39179 30.6096 1.54201 41.6401C1.00441 43.721 0.77832 45.7859 0.77832 47.9278C0.77832 62.5398 12.8587 72.975 24.6522 79.6806C34.4439 85.2477 45.2697 88.8305 56.1999 91.412C69.5671 94.5693 83.2543 95.8501 96.9561 95.8501C105.121 95.8501 113.24 95.5043 121.342 94.4427C141.123 91.8506 161.972 86.416 178.127 74.246C187.066 67.512 194.432 57.7192 193.63 46.0584C192.808 34.1013 182.979 24.6018 173.353 18.6265C156.21 7.98568 135.965 3.15019 116.055 1.16626C111.065 0.668987 106.068 0.34529 101.049 0.34529C99.3494 0.34529 97.6225 0.0263859 95.9329 0.247474Z" fill="white"/>
<path d="M120.489 35.8622L119.977 38.4113H126.457C126.17 40.5358 125.423 42.6225 124.901 44.6989C123.704 49.464 122.43 54.2086 121.235 58.9737C120.337 62.5532 119.364 66.1119 118.423 69.6797C117.548 72.9939 116.697 76.3629 114.983 79.3662C113.753 81.5215 111.819 83.3833 109.405 84.1178C108.698 84.3328 107.298 84.7515 106.818 83.9071C106.504 83.3553 107.177 82.8276 107.457 82.425C108 81.645 108.004 80.615 107.319 79.9124C105.598 78.1457 102.124 79.6862 102.103 82.0852C102.08 84.7787 105.23 86.0597 107.529 85.9864C112.092 85.8411 116.056 82.5338 118.611 79.0263C124.415 71.06 126.807 61.0632 129.164 51.6664L131.296 43.1695C131.689 41.6022 132.209 40.0128 132.426 38.4113H138.053C138.219 37.6134 138.494 36.8456 138.565 36.0321H133.108C134.677 31.1429 135.842 25.8721 138.795 21.5875C140.173 19.587 142.148 17.5093 144.704 17.2004C145.499 17.1043 146.823 17.0136 147.25 17.8674C147.711 18.7894 146.483 19.9484 146.459 20.9077C146.395 23.4041 149.862 23.8466 151.318 22.4008C154.018 19.7205 150.538 16.22 147.773 15.6925C143.664 14.9082 139.449 16.9337 136.519 19.7248C133.743 22.3685 131.901 25.3893 130.091 28.7248C128.877 30.9622 127.904 33.7188 125.605 35.1011C124.062 36.0281 122.214 35.8622 120.489 35.8622ZM46.3093 35.0846C44.4788 35.3242 42.7759 35.5706 41.0229 36.2111C33.3345 39.0203 27.1372 45.9743 25.1459 53.8756C24.2624 57.3812 24.0508 61.4361 25.739 64.7516C28.8049 70.7721 36.7844 71.139 42.3871 68.9235C45.4375 67.7173 47.9353 65.6811 50.2314 63.3921C50.751 62.8741 52.4976 61.5729 51.9797 60.6991C51.5544 59.9813 50.8419 60.4557 50.4019 60.853C49.1109 62.019 47.9192 63.2367 46.4798 64.2351C42.2031 67.2015 35.4483 68.2157 32.1727 63.2221C30.5597 60.7633 30.7849 57.4978 31.2329 54.7253C32.185 48.8327 35.565 42.6643 40.5113 39.2135C42.596 37.7592 45.5728 36.423 48.1851 36.761C48.6426 36.8203 49.1109 36.9167 49.5493 37.0609C49.845 37.1583 50.1332 37.279 50.3946 37.4494C52.8449 39.0472 49.477 40.8895 48.8663 42.4898C48.1053 44.4838 49.5273 46.2967 51.5956 46.2209C55.1 46.0924 56.1659 41.1678 54.8681 38.5812C53.3671 35.59 49.4168 34.6781 46.3093 35.0846ZM84.8486 60.1632C80.833 62.6552 76.8885 66.6888 71.7179 66.2514C67.528 65.8971 64.0653 62.5329 63.8803 58.2939C63.8458 57.5025 63.763 55.9685 64.2195 55.2891C64.5844 54.7456 65.6778 54.8282 66.261 54.7473C68.0291 54.5026 69.8055 54.2489 71.5474 53.8552C76.9712 52.6298 83.1054 50.4022 86.4809 45.7186C88.4256 43.0201 89.3532 38.7748 86.2121 36.5061C85.5476 36.026 84.7778 35.7088 83.9959 35.4749C81.6508 34.7739 79.0324 34.9483 76.6632 35.4204C68.1379 37.1192 61.7889 44.0279 58.6898 51.8363C56.5582 57.207 56.6197 64.6457 61.8273 68.3129C67.4566 72.2771 74.9994 69.4219 80.0738 65.997C81.4522 65.0668 82.7782 63.9979 83.9959 62.867C84.4263 62.4674 85.1371 61.9415 85.3041 61.3532C85.4319 60.9016 85.0822 60.5084 84.8486 60.1632ZM99.514 52.8559C99.3712 51.2507 100.354 49.2973 100.806 47.7578C101.604 45.0375 102.4 42.3156 103.218 39.6008C103.652 38.1589 104.239 36.6716 104.459 35.1825C100.103 35.272 95.8498 36.8655 91.4992 37.0518L91.6697 38.5812C93.3027 38.2789 96.4643 37.5859 97.1552 39.7709C97.4032 40.5545 97.021 41.7137 96.845 42.4898C96.3769 44.5552 95.7714 46.5866 95.1384 48.6075C93.7259 53.1175 92.4168 57.6679 91.0858 62.2025C90.4187 64.4752 89.4295 66.8207 89.1118 69.1699H94.9097C95.2446 66.6919 96.0884 64.2018 96.947 61.8626C97.6383 59.9789 98.2655 58.0526 99.1676 56.2547C100.572 53.4562 102.395 50.8089 104.217 48.2676C105.871 45.9609 107.726 43.0526 110.087 41.4105C110.294 41.2662 110.528 41.126 110.769 41.045C112.576 40.4383 112.446 42.4816 113.155 43.4779C113.833 44.4301 115.221 44.5846 116.223 44.0722C116.579 43.89 116.868 43.6316 117.119 43.3235C117.449 42.9185 117.712 42.4549 117.924 41.98C118.895 39.8107 119.826 34.6162 115.885 35.0445C115.415 35.0954 114.956 35.254 114.52 35.4294C113.667 35.7728 112.879 36.2512 112.133 36.7846C108.238 39.5707 105.328 43.655 102.697 47.5879C101.592 49.2398 100.202 50.9837 99.514 52.8559ZM158.858 59.4835C158.425 61.0041 157.932 62.5179 157.631 64.0718C157.436 65.079 157.299 66.1038 157.325 67.1307C157.385 69.4274 159.258 70.4973 161.416 70.1105C164.381 69.579 166.784 67.4294 168.719 65.2614C169.335 64.5721 169.949 63.8322 170.445 63.0522C170.629 62.7635 170.863 62.4205 170.742 62.0621C170.583 61.5853 170.019 61.3596 169.601 61.1829C168.697 62.7633 167.333 64.5407 165.849 65.6135C165.029 66.2061 163.887 66.5384 163.535 65.2605C163.297 64.3901 163.699 63.3817 163.91 62.5424C164.396 60.6041 164.937 58.6865 165.484 56.7645C166.838 52.0017 168.225 47.247 169.601 42.4898C170.293 40.0957 171.431 37.4956 171.647 35.0125C170.314 35.34 168.915 35.506 167.555 35.6923C167.024 35.765 166.209 35.7441 165.798 36.1346C164.898 36.9918 164.813 38.9914 164.315 40.1106C163.938 38.9595 163.499 37.8226 162.7 36.8886C159.398 33.0314 153.269 35.8087 149.99 38.144C145.245 41.5232 141.669 46.3526 139.37 51.6664C138.314 54.1069 137.4 56.8134 137.216 59.4835C137.086 61.3742 137.072 63.4466 137.669 65.2614C137.945 66.0995 138.373 66.9393 138.913 67.6379C142.348 72.076 148.265 69.7822 151.866 66.8824C154.556 64.7157 156.604 62.0626 158.858 59.4835Z" fill="#0A7AFF"/>
<path d="M64.5558 53.0259C70.3629 53.0099 77.1833 50.3159 80.8123 45.7186C82.3098 43.8216 84.019 40.0364 81.9131 37.9378C79.883 35.9145 76.1718 37.1984 74.1053 38.4459C70.2151 40.7948 67.5393 44.4573 65.8525 48.6075C65.2907 49.9896 64.6864 51.5332 64.5558 53.0259ZM156.982 37.1398C154.525 37.6622 152.36 39.6127 150.801 41.4701C147.271 45.6747 144.482 51.1625 143.524 56.5946C142.982 59.6711 142.611 64.8987 146.75 65.6917C147.308 65.7985 147.897 65.7924 148.455 65.6922C151.31 65.1805 153.709 62.9772 155.517 60.843C158.934 56.8094 161.821 52.0487 162.587 46.7382C163.066 43.4183 163.638 37.4182 158.858 37.0671C158.247 37.0222 157.583 37.012 156.982 37.1398ZM99.2297 52.9693C99.2203 52.9786 99.2108 53.1581 99.2867 53.0825C99.296 53.0731 99.3056 52.8937 99.2297 52.9693Z" fill="white"/>
</svg>
