<svg width="92" height="46" viewBox="0 0 92 46" fill="none" xmlns="http://www.w3.org/2000/svg">
<path d="M45.3396 0.321538C44.3297 0.453681 43.2942 0.32658 42.2781 0.370914C40.1279 0.464736 37.9766 0.64929 35.8329 0.863036C32.1489 1.23037 28.4551 1.92813 24.8761 2.86591C20.1026 4.11663 15.3492 5.7751 11.0994 8.31608C6.6748 10.9617 2.09144 14.666 0.74508 19.8773C0.491091 20.8604 0.384277 21.8359 0.384277 22.8479C0.384277 29.7513 6.09159 34.6813 11.6634 37.8493C16.2894 40.4795 21.404 42.1722 26.5679 43.3918C32.8832 44.8835 39.3497 45.4886 45.823 45.4886C49.6807 45.4886 53.5164 45.3252 57.3438 44.8236C66.6895 43.599 76.5393 41.0315 84.172 35.2818C88.3952 32.1004 91.8749 27.4738 91.4962 21.9647C91.1079 16.3156 86.4641 11.8276 81.9162 9.00461C73.8172 3.97742 64.2527 1.69291 54.8463 0.755613C52.4887 0.52068 50.1279 0.367751 47.7566 0.367751C46.9537 0.367751 46.1379 0.217086 45.3396 0.321538Z" fill="white"/>
<path d="M56.941 17.1476L56.6993 18.3518H59.7608C59.6252 19.3556 59.2719 20.3414 59.0255 21.3224C58.4601 23.5737 57.8581 25.8152 57.2933 28.0665C56.8691 29.7576 56.4097 31.4389 55.9649 33.1245C55.5518 34.6902 55.1497 36.2819 54.3398 37.7008C53.7585 38.7191 52.845 39.5987 51.7043 39.9457C51.3703 40.0473 50.709 40.2451 50.4823 39.8461C50.334 39.5855 50.6521 39.3362 50.7844 39.146C51.0406 38.7775 51.0425 38.2908 50.7191 37.9589C49.9059 37.1242 48.2647 37.852 48.2548 38.9854C48.2436 40.2579 49.7322 40.8631 50.8181 40.8285C52.9739 40.7599 54.8467 39.1973 56.0539 37.5402C58.7957 33.7766 59.9259 29.0537 61.0396 24.6142L62.0467 20.5999C62.2324 19.8594 62.4783 19.1085 62.5806 18.3518H65.2392C65.3175 17.9749 65.4473 17.6122 65.4809 17.2278H62.9028C63.644 14.9179 64.1945 12.4278 65.5894 10.4035C66.2408 9.45839 67.1736 8.47681 68.3813 8.33085C68.7569 8.28549 69.3824 8.24262 69.584 8.64597C69.8019 9.08161 69.2218 9.62916 69.2103 10.0824C69.1802 11.2618 70.8181 11.4708 71.5061 10.7878C72.7817 9.5215 71.1375 7.86768 69.8314 7.61847C67.8899 7.24795 65.8985 8.20488 64.5141 9.5235C63.2028 10.7725 62.3327 12.1997 61.4775 13.7755C60.9038 14.8326 60.4443 16.1349 59.358 16.788C58.6293 17.2259 57.7562 17.1476 56.941 17.1476ZM21.8952 16.7802C21.0304 16.8934 20.2259 17.0098 19.3976 17.3124C15.7653 18.6396 12.8374 21.925 11.8966 25.6579C11.4792 27.3141 11.3792 29.2298 12.1768 30.7962C13.6253 33.6406 17.3952 33.8139 20.0422 32.7672C21.4833 32.1974 22.6634 31.2354 23.7482 30.1539C23.9937 29.9092 24.8188 29.2945 24.5741 28.8816C24.3732 28.5425 24.0366 28.7666 23.8287 28.9544C23.2188 29.5052 22.6558 30.0805 21.9757 30.5522C19.9552 31.9537 16.764 32.4328 15.2164 30.0736C14.4543 28.912 14.5608 27.3692 14.7724 26.0593C15.2222 23.2754 16.8191 20.3612 19.156 18.7309C20.1409 18.0438 21.5472 17.4125 22.7814 17.5722C22.9975 17.6002 23.2188 17.6457 23.4259 17.7139C23.5656 17.7599 23.7018 17.8169 23.8253 17.8974C24.9829 18.6523 23.3917 19.5227 23.1032 20.2787C22.7437 21.2208 23.4155 22.0773 24.3927 22.0415C26.0483 21.9808 26.5519 19.6542 25.9387 18.4321C25.2296 17.0189 23.3633 16.5881 21.8952 16.7802ZM40.1029 28.6285C38.2057 29.8058 36.3422 31.7115 33.8994 31.5048C31.9199 31.3374 30.2839 29.748 30.1965 27.7453C30.1802 27.3714 30.1411 26.6467 30.3568 26.3257C30.5292 26.069 31.0458 26.108 31.3213 26.0698C32.1566 25.9541 32.9958 25.8343 33.8188 25.6483C36.3813 25.0693 39.2794 24.0169 40.8741 21.8042C41.7928 20.5293 42.2311 18.5236 40.7471 17.4518C40.4331 17.225 40.0695 17.0751 39.7001 16.9646C38.5921 16.6334 37.3551 16.7158 36.2358 16.9388C32.208 17.7414 29.2085 21.0054 27.7443 24.6945C26.7372 27.2318 26.7663 30.7462 29.2266 32.4788C31.8861 34.3516 35.4497 33.0027 37.8471 31.3846C38.4983 30.9451 39.1247 30.4401 39.7001 29.9058C39.9034 29.7171 40.2392 29.4686 40.3181 29.1906C40.3785 28.9773 40.2133 28.7915 40.1029 28.6285ZM47.0315 25.1762C46.9641 24.4178 47.4284 23.4949 47.6418 22.7676C48.0191 21.4824 48.3952 20.1964 48.7814 18.9139C48.9865 18.2326 49.2636 17.53 49.3679 16.8264C47.3098 16.8687 45.3004 17.6216 43.2449 17.7096L43.3255 18.4321C44.097 18.2893 45.5907 17.9619 45.9171 18.9942C46.0343 19.3644 45.8537 19.912 45.7706 20.2787C45.5494 21.2545 45.2633 22.2143 44.9643 23.169C44.2969 25.2997 43.6785 27.4496 43.0496 29.5919C42.7345 30.6657 42.2671 31.7738 42.117 32.8836H44.8562C45.0145 31.7129 45.4131 30.5365 45.8187 29.4313C46.1454 28.5414 46.4417 27.6313 46.8679 26.7819C47.5312 25.4597 48.3924 24.209 49.2534 23.0084C50.0349 21.9186 50.9112 20.5446 52.0265 19.7688C52.1246 19.7007 52.2349 19.6344 52.3488 19.5961C53.2027 19.3095 53.1411 20.2749 53.4763 20.7456C53.7965 21.1954 54.4524 21.2684 54.9257 21.0263C55.094 20.9403 55.2304 20.8182 55.349 20.6726C55.5049 20.4813 55.6288 20.2623 55.7293 20.0379C56.1881 19.013 56.6279 16.5589 54.7657 16.7612C54.5439 16.7853 54.3271 16.8602 54.1212 16.9431C53.718 17.1053 53.3457 17.3313 52.9933 17.5834C51.1531 18.8996 49.7784 20.8292 48.5354 22.6873C48.0133 23.4678 47.3565 24.2917 47.0315 25.1762ZM75.0682 28.3073C74.8636 29.0257 74.6306 29.7409 74.4885 30.4751C74.3963 30.9509 74.3317 31.435 74.3443 31.9202C74.3723 33.0053 75.2575 33.5108 76.2766 33.328C77.6777 33.0769 78.8128 32.0614 79.7272 31.0371C80.0181 30.7114 80.3081 30.3619 80.5426 29.9933C80.6296 29.8569 80.7399 29.6949 80.6827 29.5256C80.6078 29.3003 80.3412 29.1937 80.1438 29.1102C79.7168 29.8569 79.0722 30.6966 78.3713 31.2034C77.9838 31.4834 77.444 31.6404 77.2781 31.0367C77.1653 30.6254 77.3554 30.149 77.4553 29.7525C77.6849 28.8367 77.9403 27.9308 78.1989 27.0228C78.8386 24.7726 79.4936 22.5262 80.1438 20.2787C80.4709 19.1476 81.0082 17.9193 81.1105 16.7461C80.4805 16.9008 79.8199 16.9793 79.177 17.0673C78.9264 17.1016 78.5413 17.0918 78.3472 17.2763C77.9218 17.6812 77.8815 18.6259 77.6462 19.1547C77.4682 18.6109 77.2611 18.0737 76.8833 17.6325C75.3236 15.8102 72.428 17.1223 70.8788 18.2256C68.6371 19.8221 66.9474 22.1037 65.8611 24.6142C65.3622 25.7672 64.9304 27.0459 64.8436 28.3073C64.7822 29.2006 64.7757 30.1797 65.0579 31.0371C65.1882 31.433 65.39 31.8298 65.6455 32.1599C67.2682 34.2566 70.0639 33.1729 71.765 31.8029C73.0361 30.7793 74.0033 29.5258 75.0682 28.3073Z" fill="#0A7AFF"/>
<path d="M30.5156 25.2565C33.2592 25.2489 36.4815 23.9761 38.196 21.8042C38.9034 20.9079 39.7109 19.1196 38.716 18.1282C37.7569 17.1723 36.0036 17.7788 35.0273 18.3682C33.1894 19.4779 31.9252 21.2083 31.1283 23.169C30.8629 23.822 30.5774 24.5512 30.5156 25.2565ZM74.1819 17.7512C73.0212 17.998 71.9985 18.9195 71.2618 19.797C69.5941 21.7834 68.2763 24.3761 67.8241 26.9425C67.5679 28.396 67.3924 30.8657 69.348 31.2403C69.6117 31.2908 69.8898 31.288 70.1537 31.2406C71.5023 30.9988 72.6358 29.9579 73.4899 28.9496C75.1041 27.044 76.4684 24.7948 76.8301 22.2859C77.0565 20.7174 77.3264 17.8827 75.0682 17.7168C74.7797 17.6956 74.4658 17.6908 74.1819 17.7512ZM46.8972 25.2297C46.8928 25.2341 46.8882 25.3189 46.9241 25.2832C46.9285 25.2788 46.933 25.194 46.8972 25.2297Z" fill="white"/>
</svg>
