<svg width="95" height="120" viewBox="0 0 95 120" fill="none" xmlns="http://www.w3.org/2000/svg">
<path d="M63.2696 62.7051V58.3989L42.9561 93.319H62.6268V67.2491H68.5742L68.6105 86.4261L82.514 62.7051H63.2696Z" fill="#956B28"/>
<path d="M94.245 56.762V5.47314L64.2355 56.762H94.245Z" fill="#956B28"/>
<path d="M94.245 93.319V56.762L77.5741 86.6923H68.8913L68.8734 93.319H94.245Z" fill="#956B28"/>
<path d="M93.9722 0.5625H66.2896L33.4076 56.762H60.8564L93.9722 0.5625Z" fill="#31AE4C"/>
<path d="M32.3427 62.5649V57.8533L11.5826 93.319H31.2781V67.5257L37.3039 67.5382V93.287H38.8028L42.4844 86.8485L37.7341 86.8441L51.6861 62.6094L32.3427 62.5649Z" fill="#31AE4C"/>
<path d="M83.4014 96.8655H73.784V119.509H94.245V114.384H83.4014V96.8655Z" fill="#31AE4C"/>
<path d="M69.9223 96.8655H58.3064L46.7807 106.273L46.8213 96.8655H36.9542V119.509H46.7807V109.822L58.9465 119.509H71.3287L55.2862 107.591L69.9223 96.8655Z" fill="#31AE4C"/>
<path d="M33.911 96.8655H21.9119L10.571 106.218L10.6115 96.8655H0.942871V119.509H10.571V109.822L22.7503 119.509H35.3173L19.275 107.591L33.911 96.8655Z" fill="#31AE4C"/>
<path d="M20.8582 63.3095H0.942871V93.319H8.19923L11.807 86.9679H6.67561L20.8582 63.3095Z" fill="#1A6CB2"/>
<path d="M0.942871 49.0236V0.5625H63.1443L29.7911 56.762H7.17531L7.20711 49.0236H0.942871Z" fill="#1A6CB2"/>
<path d="M12.7007 30.6393L10.7692 28.4729L5.88416 28.2277L5.63204 26.5018H8.09029L6.09125 24.4445V21.8239L9.00877 24.8169V22.6051H10.5485L10.7692 26.5018L13.0068 28.3321L13.2995 25.5527L14.9653 26.0977V30.4485L18.6752 34.5587L18.9228 31.8019L20.5076 32.1835V36.5525L23.0064 38.7734L22.9209 31.8019L20.5076 28.6409H16.7978L16.298 26.9787L18.171 26.629L11.8812 20.5614H6.88368V18.8991H11.0483L8.09029 17.0689L8.71614 15.2659L9.92275 16.1242L9.71566 13.2675L11.0483 11.3918L11.8812 17.3868L19.175 24.4445L19.4001 21.506L20.8408 22.2191V26.0977L23.5061 28.6409V22.8458L21.3811 20.5614L16.298 20.2435L15.6317 18.6857H20.5076L18.0044 16.4603H13.6326L13.0068 14.4029L15.9243 14.194L12.2144 11.083L13.6326 9.44348L15.7172 11.083L15.6317 7.72222L17.6306 7.13179L18.0044 14.026L20.0889 15.8336V12.6362L21.3811 13.5628V16.7146L23.299 18.6857V12.8906L19.175 7.13179L21.3811 6.29158L23.5061 9.1937V6.5459H24.7533L25.046 9.44348L26.6713 6.5459L29.17 7.13179L25.046 12.6362V18.6857L26.9234 16.7146L26.6713 13.5628L28.2966 12.6362V15.8336L30.2551 14.026L30.7954 7.13179L32.6683 7.72222V11.3918L34.4422 9.44348L36.1261 10.8741L32.3352 14.4029L35.4057 14.571L34.7124 16.1696L30.2551 16.4603L27.7068 18.6857H32.6683L32.1551 20.2435L26.9234 20.5614L25.046 22.6051V28.6409L27.2566 26.0977V22.2191L28.8369 21.506L29.17 24.4445L36.4908 17.0689L37.3868 11.3918L38.5619 13.2675L38.2557 16.1696L39.6919 15.2659L40.3538 16.7146L37.1977 18.8991L41.4838 18.6857V20.5614H36.3512L29.8949 26.9787H32.1551L31.5428 28.6409H27.5627L25.3971 31.375V38.5735L27.8464 36.5525L27.7068 32.1835L29.4492 31.375L29.6113 34.5587L33.3572 30.4485V26.0977L35.0546 25.5527L35.4057 28.3321L37.5758 26.5018V22.8458L39.1516 22.6051V24.8169L42.2628 21.8239V24.0539L40.2142 26.5018H42.5464L42.3798 27.9779L37.8145 28.4729L35.91 30.6393H42.9561L41.9161 32.4014H33.8209L31.016 36.3709L34.4422 35.7804L33.8209 37.4745L28.6883 38.3192L25.6628 41.5845V53.4883H22.6778V41.5845L19.4001 38.3192L14.5556 37.4745L13.9388 35.7804L17.6532 36.3709L14.2314 32.4014H6.3659L5.30788 30.6393H12.7007Z" fill="white"/>
</svg>
