<svg width="34" height="13" viewBox="0 0 34 13" fill="none" xmlns="http://www.w3.org/2000/svg">
<path d="M0.726562 4.59468L9.94167 0.990234C7.3432 2.83457 2.34183 6.92086 3.13271 8.49941C4.12024 10.4734 11.9178 7.38442 12.3478 7.08405M15.2045 3.21709L13.1268 6.08136C13.1268 6.08136 10.2172 9.46106 11.9178 11.676C16.0202 13.6522 21.4344 3.9291 21.4344 3.9291C21.9713 3.21708 17.8894 7.89762 19.4798 9.25035C19.4798 9.25035 22.6985 12.7964 26.9976 3.71517C27.4395 2.78274 24.8237 7.3077 26.225 8.2639C26.225 8.2639 29.367 10.5415 32.5943 3.81567C34.4137 0.864944 28.0693 10.2087 32.175 11.676" stroke="#465071" stroke-linecap="round"/>
</svg>
