<svg width="94" height="118" viewBox="0 0 94 118" fill="none" xmlns="http://www.w3.org/2000/svg">
<path d="M62.5366 61.6947V57.4326L42.4311 91.9952H61.9004V66.1922H67.7869L67.8228 85.1728L81.584 61.6947H62.5366Z" fill="#956B28"/>
<path d="M93.1947 55.8125V5.04871L63.4925 55.8125H93.1947Z" fill="#956B28"/>
<path d="M93.1947 91.9949L93.1947 55.8125L76.6945 85.4361H68.1006L68.0828 91.9949H93.1947Z" fill="#956B28"/>
<path d="M92.9249 0.188477H65.5257L32.9805 55.8126H60.1482L92.9249 0.188477Z" fill="#31AE4C"/>
<path d="M31.9261 61.5561V56.8927L11.3786 91.9953H30.8724V66.4661L36.8366 66.4785V91.9636H38.3202L41.964 85.5911L37.2624 85.5867L51.0715 61.6002L31.9261 61.5561Z" fill="#31AE4C"/>
<path d="M82.4626 95.5055H72.9436V117.917H93.1951V112.844H82.4626V95.5055Z" fill="#31AE4C"/>
<path d="M69.121 95.5055H57.624L46.2163 104.816L46.2565 95.5055H36.4904V117.917H46.2163V108.33L58.2575 117.917H70.5129L54.6347 106.121L69.121 95.5055Z" fill="#31AE4C"/>
<path d="M33.4787 95.5055H21.6025L10.3777 104.762L10.4178 95.5055H0.848145V117.917H10.3777V108.33L22.4323 117.917H34.8707L18.9926 106.121L33.4787 95.5055Z" fill="#31AE4C"/>
<path d="M20.5596 62.2928H0.848145V91.995H8.0302L11.6011 85.709H6.52218L20.5596 62.2928Z" fill="#1A6CB2"/>
<path d="M0.848145 48.1534V0.188477H62.4127L29.401 55.8126H7.01678L7.04824 48.1534H0.848145Z" fill="#1A6CB2"/>
<path d="M12.4856 29.9573L10.5739 27.8131L5.73888 27.5704L5.48935 25.8622H7.92243L5.94386 23.8259V21.2322L8.83151 24.1946V22.0054H10.3555L10.5739 25.8622L12.7886 27.6738L13.0783 24.9228L14.7271 25.4622V29.7685L18.399 33.8366L18.644 31.108L20.2127 31.4857V35.81L22.6858 38.0081L22.6012 31.108L20.2127 27.9794H16.5408L16.0461 26.3342L17.8999 25.9881L11.6745 19.9826H6.72817V18.3374H10.8502L7.92243 16.5258L8.54187 14.7413L9.73613 15.5909L9.53116 12.7634L10.8502 10.9069L11.6745 16.8405L18.8936 23.8259L19.1164 20.9176L20.5424 21.6233V25.4622L23.1805 27.9794V22.2436L21.0772 19.9826L16.0461 19.6679L15.3866 18.1261H20.2127L17.735 15.9235H13.408L12.7886 13.8872L15.6762 13.6804L12.0043 10.6013L13.408 8.97852L15.4713 10.6013L15.3866 7.27489L17.3651 6.6905L17.735 13.5141L19.7982 15.3032V12.1386L21.0772 13.0556V16.1752L22.9755 18.1261V12.3903L18.8936 6.6905L21.0772 5.85889L23.1805 8.7313V6.1106H24.4148L24.7045 8.97852L26.3132 6.1106L28.7864 6.6905L24.7045 12.1386V18.1261L26.5627 16.1752L26.3132 13.0556L27.9219 12.1386V15.3032L29.8603 13.5141L30.3951 6.6905L32.2488 7.27489V10.9069L34.0046 8.97852L35.6712 10.3945L31.9191 13.8872L34.9582 14.0535L34.272 15.6358L29.8603 15.9235L27.3381 18.1261H32.2488L31.7408 19.6679L26.5627 19.9826L24.7045 22.0054V27.9794L26.8925 25.4622V21.6233L28.4566 20.9176L28.7864 23.8259L36.0321 16.5258L36.919 10.9069L38.082 12.7634L37.779 15.6358L39.2005 14.7413L39.8556 16.1752L36.7318 18.3374L40.9741 18.1261V19.9826H35.894L29.5038 26.3342H31.7408L31.1348 27.9794H27.1955L25.0521 30.6855V37.8103L27.4762 35.81L27.3381 31.4857L29.0627 30.6855L29.2231 33.8366L32.9306 29.7685V25.4622L34.6107 24.9228L34.9582 27.6738L37.1061 25.8622V22.2436L38.6657 22.0054V24.1946L41.745 21.2322V23.4394L39.7174 25.8622H42.0258L41.8609 27.3232L37.3423 27.8131L35.4573 29.9573H42.4313L41.4019 31.7014H33.3896L30.6134 35.6302L34.0046 35.0458L33.3896 36.7225L28.3095 37.5586L25.315 40.7904V52.5723H22.3605V40.7904L19.1164 37.5586L14.3216 36.7225L13.7111 35.0458L17.3874 35.6302L14.0007 31.7014H6.2157L5.16851 29.9573H12.4856Z" fill="white"/>
</svg>
