<svg width="95" height="120" viewBox="0 0 95 120" fill="none" xmlns="http://www.w3.org/2000/svg">
<path d="M63.2759 63.0759V58.7697L42.9624 93.6898H62.6331V67.62H68.5806L68.6169 86.7969L82.5204 63.0759H63.2759Z" fill="#956B28"/>
<path d="M94.2513 57.1329V5.84399L64.2419 57.1329H94.2513Z" fill="#956B28"/>
<path d="M94.2513 93.6898V57.1329L77.5805 87.0632H68.8977L68.8797 93.6898H94.2513Z" fill="#956B28"/>
<path d="M93.9785 0.93335H66.2959L33.414 57.1329H60.8628L93.9785 0.93335Z" fill="#31AE4B"/>
<path d="M32.349 62.9357V58.2241L11.5889 93.6898H31.2844V67.8965L37.3102 67.9091V93.6578H38.8092L42.4907 87.2194L37.7405 87.215L51.6925 62.9803L32.349 62.9357Z" fill="#31AE4B"/>
<path d="M83.4077 97.2364H73.7903V119.88H94.2513V114.754H83.4077V97.2364Z" fill="#1AA537"/>
<path d="M69.9287 97.2364H58.3128L46.787 106.643L46.8276 97.2364H36.9606V119.88H46.787V110.193L58.9528 119.88H71.335L55.2926 107.962L69.9287 97.2364Z" fill="#31AE4B"/>
<path d="M33.9173 97.2364H21.9183L10.5773 106.589L10.6179 97.2364H0.949219V119.88H10.5773V110.193L22.7567 119.88H35.3237L19.2814 107.962L33.9173 97.2364Z" fill="#31AE4B"/>
<path d="M20.8646 63.6804H0.949219V93.6898H8.20557L11.8134 87.3388H6.68195L20.8646 63.6804Z" fill="#1A6CB2"/>
<path d="M0.949219 49.3944V0.93335H63.1506L29.7974 57.1329H7.18166L7.21346 49.3944H0.949219Z" fill="#1A6CB2"/>
<path d="M12.707 31.0101L10.7755 28.8438L5.8905 28.5985L5.63839 26.8727H8.09664L6.0976 24.8153V22.1948L9.01512 25.1878V22.976H10.5549L10.7755 26.8727L13.0131 28.703L13.3058 25.9235L14.9717 26.4685V30.8194L18.6815 34.9296L18.9291 32.1728L20.514 32.5543V36.9234L23.0128 39.1442L22.9272 32.1728L20.514 29.0118H16.8041L16.3043 27.3496L18.1773 26.9998L11.8876 20.9323H6.89002V19.27H11.0547L8.09664 17.4397L8.72248 15.6367L9.9291 16.4951L9.722 13.6384L11.0547 11.7627L11.8876 17.7576L19.1813 24.8153L19.4064 21.8769L20.8471 22.5899V26.4685L23.5125 29.0118V23.2167L21.3875 20.9323L16.3043 20.6143L15.638 19.0566H20.514L18.0107 16.8311H13.639L13.0131 14.7738L15.9307 14.5649L12.2208 11.4539L13.639 9.81433L15.7236 11.4539L15.638 8.09307L17.637 7.50264L18.0107 14.3968L20.0952 16.2044V13.0071L21.3875 13.9336V17.0855L23.3054 19.0566V13.2615L19.1813 7.50264L21.3875 6.66243L23.5125 9.56455V6.91675H24.7596L25.0523 9.81433L26.6776 6.91675L29.1764 7.50264L25.0523 13.0071V19.0566L26.9297 17.0855L26.6776 13.9336L28.303 13.0071V16.2044L30.2615 14.3968L30.8018 7.50264L32.6747 8.09307V11.7627L34.4486 9.81433L36.1324 11.2449L32.3415 14.7738L35.4121 14.9418L34.7187 16.5405L30.2615 16.8311L27.7132 19.0566H32.6747L32.1614 20.6143L26.9297 20.9323L25.0523 22.976V29.0118L27.263 26.4685V22.5899L28.8432 21.8769L29.1764 24.8153L36.4971 17.4397L37.3931 11.7627L38.5682 13.6384L38.262 16.5405L39.6983 15.6367L40.3601 17.0855L37.204 19.27L41.4902 19.0566V20.9323H36.3576L29.9013 27.3496H32.1614L31.5491 29.0118H27.5691L25.4035 31.7459V38.9444L27.8527 36.9234L27.7132 32.5543L29.4555 31.7459L29.6176 34.9296L33.3635 30.8194V26.4685L35.0609 25.9235L35.4121 28.703L37.5822 26.8727V23.2167L39.158 22.976V25.1878L42.2691 22.1948V24.4248L40.2206 26.8727H42.5527L42.3862 28.3488L37.8208 28.8438L35.9164 31.0101H42.9624L41.9224 32.7723H33.8273L31.0223 36.7417L34.4486 36.1513L33.8273 37.8453L28.6946 38.6901L25.6691 41.9553V53.8591H22.6841V41.9553L19.4064 38.6901L14.562 37.8453L13.9452 36.1513L17.6595 36.7417L14.2378 32.7723H6.37225L5.31423 31.0101H12.707Z" fill="white"/>
</svg>
