<svg width="300" height="189" viewBox="0 0 300 189" fill="none" xmlns="http://www.w3.org/2000/svg">
<path d="M54.2964 36.3444C46.1755 35.1449 34.9673 34.1211 42.0079 32.5315C42.0079 32.5315 197.037 5.46472 207.179 15.8833C215.84 24.7804 9.02595 76.4199 1.5467 97.8888C-7.4148 123.613 207.179 94.5594 298.296 89.9947M110.221 81.8998C136.394 78.7665 180.205 73.0821 208.449 68.2464M208.449 68.2464C223.247 65.7127 233.771 63.4122 235.249 61.8333C237.96 58.9367 225.862 57.2299 213.588 55.9873M208.449 68.2464C210.178 64.09 211.907 59.9692 213.588 55.9873M208.449 68.2464C204.433 77.9045 200.422 87.7539 197.047 96.4938C186.274 126.432 175.717 160.342 157.073 187.652M213.588 55.9873C213.236 55.9517 213.942 56.0217 213.588 55.9873ZM213.588 55.9873C213.184 56.0874 214.005 55.8852 213.588 55.9873ZM213.588 55.9873C220.127 54.3724 226.213 52.7626 227.673 52.1219C227.673 52.1219 249.971 44.6106 248.52 37.7962C247.132 31.2771 240.187 28.6377 225.426 28.1396M213.588 55.9873C213.588 55.9873 206.372 53.9626 194.253 54.268C174.373 54.769 135.334 57.4872 138.213 64.3552C141.093 71.2227 158.111 68.862 166.261 66.8231C178.559 64.1322 199.516 59.4357 213.588 55.9873ZM213.588 55.9873C218.214 45.0302 222.626 34.7507 225.426 28.1396M213.588 55.9873C213.53 56.123 213.645 55.8512 213.588 55.9873ZM225.426 28.1396C225.647 27.6178 225.223 28.6196 225.426 28.1396ZM225.426 28.1396C226.071 28.3542 225.426 28.1396 235.249 20.5734C235.249 20.5734 258.568 2.27741 248.52 1.5799C240.482 1.02192 229.025 20.02 225.426 28.1396ZM225.426 28.1396C207.76 28.3979 178.139 25.658 150.786 49.2781C141.425 60.5039 225.426 28.1396 225.426 28.1396ZM180.603 89.3052L203.633 80.2963C197.138 84.9079 184.64 95.1182 186.615 99.0649C189.085 103.999 208.572 96.2767 209.646 95.5259M216.786 85.863L211.594 93.0201C211.594 93.0201 204.32 101.467 208.572 107.001C214.932 110.066 222.554 101.877 227.425 95.2185M227.425 95.2185C230.405 91.1443 232.354 87.643 232.354 87.643C233.223 86.4906 229.253 90.9869 227.425 95.2185ZM227.425 95.2185C226.429 97.5232 226.068 99.7494 227.469 100.942C227.469 100.942 234.757 108.969 244.726 90.1687M244.726 90.1687C245.231 89.2181 245.741 88.199 246.259 87.1067C246.753 86.062 245.711 87.7613 244.726 90.1687ZM244.726 90.1687C243.517 93.128 242.395 97.1573 244.326 98.4751C244.326 98.4751 251.412 103.611 259.032 89.7241M259.032 89.7241C259.431 88.9974 259.831 88.2186 260.232 87.3843M259.032 89.7241C259.473 88.8075 259.89 88.0092 260.232 87.3843M259.032 89.7241C256.412 95.1616 252.924 104.761 259.197 107.001M260.232 87.3843C260.236 87.3758 260.24 87.3673 260.244 87.3588C260.249 87.3505 260.254 87.3423 260.259 87.3341M260.232 87.3843C260.241 87.3675 260.25 87.3507 260.259 87.3341M260.259 87.3341C261.527 85.2763 261.181 85.6518 260.259 87.3341Z" stroke="#465071" stroke-width="1.89014" stroke-linecap="round"/>
</svg>
