<svg width="966" height="48" viewBox="0 0 966 48" fill="none" xmlns="http://www.w3.org/2000/svg">
<path d="M0.942871 5.57345C0.942871 2.56004 3.38572 0.117188 6.39913 0.117188H216.465C219.479 0.117188 221.922 2.56004 221.922 5.57345V42.1304C221.922 45.1438 219.479 47.5867 216.465 47.5867H6.39913C3.38572 47.5867 0.942871 45.1438 0.942871 42.1304V5.57345Z" fill="#0A7AFF"/>
<path d="M783.917 5.57345C783.917 2.56004 786.36 0.117188 789.373 0.117188H959.881C962.895 0.117188 965.337 2.56004 965.337 5.57345V42.1304C965.337 45.1438 962.895 47.5867 959.881 47.5867H789.373C786.36 47.5867 783.917 45.1438 783.917 42.1304V5.57345Z" fill="#0A7AFF"/>
<path d="M18.5528 33.946V14.1051H26.497C27.9566 14.1051 29.1741 14.3214 30.1493 14.7542C31.1246 15.1869 31.8576 15.7875 32.3485 16.5561C32.8394 17.3182 33.0848 18.1966 33.0848 19.1912C33.0848 19.9663 32.9298 20.6477 32.6198 21.2354C32.3097 21.8167 31.8835 22.2946 31.341 22.6692C30.8049 23.0374 30.1913 23.2989 29.5002 23.454V23.6477C30.2559 23.68 30.9631 23.8931 31.6219 24.2871C32.2871 24.6811 32.8264 25.2333 33.2398 25.9438C33.6531 26.6478 33.8598 27.4874 33.8598 28.4626C33.8598 29.5154 33.5983 30.4551 33.0751 31.2818C32.5584 32.1021 31.7931 32.7512 30.779 33.2291C29.765 33.7071 28.5153 33.946 27.0298 33.946H18.5528ZM22.7477 30.5165H26.1676C27.3366 30.5165 28.1891 30.2937 28.7252 29.848C29.2613 29.3959 29.5293 28.7953 29.5293 28.046C29.5293 27.4971 29.3969 27.0127 29.1321 26.5929C28.8673 26.173 28.4895 25.8436 27.9986 25.6047C27.5142 25.3657 26.9362 25.2462 26.2645 25.2462H22.7477V30.5165ZM22.7477 22.4077H25.8576C26.4324 22.4077 26.9426 22.3075 27.3883 22.1073C27.8404 21.9006 28.1956 21.61 28.4539 21.2354C28.7187 20.8608 28.8511 20.4119 28.8511 19.8888C28.8511 19.1719 28.596 18.5938 28.0858 18.1546C27.582 17.7154 26.8651 17.4958 25.9351 17.4958H22.7477V22.4077Z" fill="white"/>
<path d="M36.8622 33.946V14.1051H50.2316V17.5637H41.0571V22.2914H49.5438V25.75H41.0571V30.4874H50.2704V33.946H36.8622ZM42.0937 12.1868L44.1476 7.77882H47.9646L45.0098 12.1868H42.0937Z" fill="white"/>
<path d="M70.435 14.1051V33.946H66.8117L58.1797 21.4582H58.0344V33.946H53.8395V14.1051H57.5209L66.0851 26.5832H66.2595V14.1051H70.435Z" fill="white"/>
<path d="M74.1737 33.946V14.1051H87.5431V17.5637H78.3686V22.2914H86.8552V25.75H78.3686V30.4874H87.5818V33.946H74.1737Z" fill="white"/>
<path d="M91.151 33.946V14.1051H104.288V17.5637H95.3459V22.2914H103.416V25.75H95.3459V33.946H91.151Z" fill="white"/>
<path d="M111.577 14.1051V33.946H107.382V14.1051H111.577Z" fill="white"/>
<path d="M132.807 21.0513H128.564C128.487 20.5024 128.328 20.0147 128.089 19.5885C127.85 19.1557 127.544 18.7876 127.169 18.484C126.794 18.1805 126.362 17.948 125.871 17.7865C125.387 17.625 124.86 17.5443 124.292 17.5443C123.265 17.5443 122.37 17.7994 121.608 18.3096C120.846 18.8134 120.255 19.5497 119.835 20.5185C119.415 21.4808 119.206 22.6498 119.206 24.0255C119.206 25.44 119.415 26.6284 119.835 27.5907C120.262 28.5531 120.856 29.2796 121.618 29.7705C122.38 30.2614 123.262 30.5068 124.263 30.5068C124.825 30.5068 125.345 30.4325 125.822 30.284C126.307 30.1354 126.736 29.9191 127.111 29.6349C127.486 29.3442 127.796 28.9922 128.041 28.5789C128.293 28.1655 128.467 27.6941 128.564 27.1644L132.807 27.1838C132.698 28.0945 132.423 28.9729 131.984 29.8189C131.551 30.6586 130.967 31.411 130.23 32.0762C129.501 32.735 128.629 33.2582 127.615 33.6457C126.607 34.0268 125.467 34.2173 124.195 34.2173C122.425 34.2173 120.843 33.8168 119.448 33.016C118.059 32.2151 116.961 31.0558 116.154 29.538C115.353 28.0202 114.953 26.1827 114.953 24.0255C114.953 21.8619 115.359 20.0212 116.173 18.5034C116.987 16.9856 118.091 15.8295 119.487 15.0351C120.882 14.2342 122.451 13.8338 124.195 13.8338C125.345 13.8338 126.41 13.9953 127.392 14.3182C128.38 14.6411 129.255 15.1126 130.017 15.7326C130.779 16.3462 131.4 17.0986 131.877 17.9899C132.362 18.8812 132.672 19.9017 132.807 21.0513Z" fill="white"/>
<path d="M140.283 14.1051V33.946H136.088V14.1051H140.283Z" fill="white"/>
<path d="M147.427 33.946H142.932L149.781 14.1051H155.187L162.027 33.946H157.532L152.562 18.639H152.407L147.427 33.946ZM147.146 26.1472H157.764V29.4217H147.146V26.1472Z" fill="white"/>
<path d="M168.883 14.1051V33.946H164.688V14.1051H168.883Z" fill="white"/>
<path d="M172.607 33.946V14.1051H180.435C181.933 14.1051 183.212 14.3731 184.271 14.9092C185.337 15.4388 186.148 16.1912 186.703 17.1665C187.265 18.1353 187.546 19.2752 187.546 20.5863C187.546 21.9039 187.262 23.0374 186.693 23.9868C186.125 24.9298 185.301 25.6531 184.223 26.1569C183.151 26.6607 181.853 26.9126 180.328 26.9126H175.087V23.5411H179.65C180.451 23.5411 181.116 23.4313 181.646 23.2118C182.176 22.9922 182.569 22.6628 182.828 22.2236C183.093 21.7844 183.225 21.2386 183.225 20.5863C183.225 19.9275 183.093 19.3721 182.828 18.92C182.569 18.4679 182.172 18.1256 181.636 17.8931C181.107 17.6541 180.438 17.5346 179.631 17.5346H176.802V33.946H172.607ZM183.322 24.9168L188.253 33.946H183.622L178.798 24.9168H183.322Z" fill="white"/>
<path d="M190.783 33.946V14.1051H204.153V17.5637H194.978V22.2914H203.465V25.75H194.978V30.4874H204.191V33.946H190.783Z" fill="white"/>
<path d="M808.498 33.946H801.464V14.1051H808.556C810.552 14.1051 812.27 14.5023 813.71 15.2967C815.15 16.0846 816.258 17.2181 817.033 18.6972C817.814 20.1762 818.205 21.9459 818.205 24.0062C818.205 26.0729 817.814 27.8491 817.033 29.3345C816.258 30.82 815.144 31.96 813.691 32.7544C812.244 33.5488 810.513 33.946 808.498 33.946ZM805.659 30.3518H808.323C809.563 30.3518 810.607 30.1322 811.453 29.693C812.305 29.2474 812.945 28.5595 813.371 27.6295C813.804 26.693 814.02 25.4852 814.02 24.0062C814.02 22.5401 813.804 21.342 813.371 20.4119C812.945 19.4819 812.308 18.7973 811.462 18.3581C810.616 17.9189 809.573 17.6993 808.333 17.6993H805.659V30.3518Z" fill="white"/>
<path d="M839.818 24.0255C839.818 26.1892 839.408 28.0299 838.588 29.5477C837.774 31.0655 836.663 32.2248 835.255 33.0257C833.854 33.8201 832.278 34.2173 830.527 34.2173C828.764 34.2173 827.182 33.8168 825.78 33.016C824.379 32.2151 823.271 31.0558 822.457 29.538C821.643 28.0202 821.237 26.1827 821.237 24.0255C821.237 21.8619 821.643 20.0212 822.457 18.5034C823.271 16.9856 824.379 15.8295 825.78 15.0351C827.182 14.2342 828.764 13.8338 830.527 13.8338C832.278 13.8338 833.854 14.2342 835.255 15.0351C836.663 15.8295 837.774 16.9856 838.588 18.5034C839.408 20.0212 839.818 21.8619 839.818 24.0255ZM835.565 24.0255C835.565 22.624 835.355 21.4421 834.935 20.4797C834.522 19.5174 833.937 18.7876 833.182 18.2903C832.426 17.793 831.541 17.5443 830.527 17.5443C829.513 17.5443 828.628 17.793 827.873 18.2903C827.117 18.7876 826.529 19.5174 826.11 20.4797C825.696 21.4421 825.49 22.624 825.49 24.0255C825.49 25.4271 825.696 26.609 826.11 27.5713C826.529 28.5337 827.117 29.2635 827.873 29.7608C828.628 30.2581 829.513 30.5068 830.527 30.5068C831.541 30.5068 832.426 30.2581 833.182 29.7608C833.937 29.2635 834.522 28.5337 834.935 27.5713C835.355 26.609 835.565 25.4271 835.565 24.0255Z" fill="white"/>
<path d="M859.794 14.1051V33.946H856.171L847.539 21.4582H847.393V33.946H843.198V14.1051H846.88L855.444 26.5832H855.618V14.1051H859.794Z" fill="white"/>
<path d="M866.952 33.946H862.457L869.307 14.1051H874.712L881.552 33.946H877.057L872.087 18.639H871.932L866.952 33.946ZM866.671 26.1472H877.289V29.4217H866.671V26.1472Z" fill="white"/>
<path d="M881.033 17.5637V14.1051H897.328V17.5637H891.254V33.946H887.107V17.5637H881.033Z" fill="white"/>
<path d="M900.284 33.946V14.1051H913.654V17.5637H904.479V22.2914H912.966V25.75H904.479V30.4874H913.693V33.946H900.284Z" fill="white"/>
<path d="M929.517 14.1051H933.712V26.9901C933.712 28.4368 933.366 29.7027 932.675 30.7877C931.991 31.8728 931.032 32.7189 929.798 33.326C928.564 33.9266 927.127 34.227 925.487 34.227C923.84 34.227 922.4 33.9266 921.166 33.326C919.932 32.7189 918.973 31.8728 918.289 30.7877C917.604 29.7027 917.262 28.4368 917.262 26.9901V14.1051H921.457V26.6316C921.457 27.3873 921.621 28.059 921.951 28.6467C922.287 29.2344 922.758 29.6962 923.365 30.0321C923.972 30.3679 924.68 30.5359 925.487 30.5359C926.301 30.5359 927.008 30.3679 927.608 30.0321C928.216 29.6962 928.684 29.2344 929.013 28.6467C929.349 28.059 929.517 27.3873 929.517 26.6316V14.1051Z" fill="white"/>
<path d="M937.436 33.946V14.1051H945.264C946.762 14.1051 948.041 14.3731 949.1 14.9092C950.166 15.4388 950.977 16.1912 951.532 17.1665C952.094 18.1353 952.375 19.2752 952.375 20.5863C952.375 21.9039 952.091 23.0374 951.522 23.9868C950.954 24.9298 950.131 25.6531 949.052 26.1569C947.98 26.6607 946.682 26.9126 945.157 26.9126H939.916V23.5411H944.479C945.28 23.5411 945.945 23.4313 946.475 23.2118C947.005 22.9922 947.399 22.6628 947.657 22.2236C947.922 21.7844 948.054 21.2386 948.054 20.5863C948.054 19.9275 947.922 19.3721 947.657 18.92C947.399 18.4679 947.001 18.1256 946.465 17.8931C945.936 17.6541 945.267 17.5346 944.46 17.5346H941.631V33.946H937.436ZM948.151 24.9168L953.082 33.946H948.451L943.627 24.9168H948.151Z" fill="white"/>
</svg>
